<svg width="18" height="19" viewBox="0 0 18 19" fill="none" xmlns="http://www.w3.org/2000/svg">
<path d="M11.1159 3.02539L1.21212 12.9299C1.16229 12.9799 1.12631 13.043 1.10918 13.1108L0.0114342 17.5169C-0.0214026 17.6496 0.0175732 17.7906 0.11437 17.8874C0.18761 17.9607 0.287405 18.0012 0.389484 18.0012C0.420751 18.0012 0.452731 17.9974 0.483854 17.9895L4.88997 16.8916C4.95864 16.8745 5.02103 16.8386 5.07086 16.7888L14.9755 6.88499L11.1159 3.02539Z" fill="#7F7F8D"/>
<path d="M17.4296 1.67434L16.3272 0.571884C15.5903 -0.164943 14.3061 -0.164229 13.5702 0.571884L12.2197 1.92233L16.0792 5.78178L17.4296 4.43134C17.7977 4.06342 18.0004 3.57373 18.0004 3.05291C18.0004 2.53209 17.7977 2.0424 17.4296 1.67434Z" fill="#7F7F8D"/>
</svg>
