<svg width="68" height="68" viewBox="0 0 68 68" fill="none" xmlns="http://www.w3.org/2000/svg">
<path fill-rule="evenodd" clip-rule="evenodd" d="M0.666016 3.99935C0.666016 2.15842 2.15842 0.666016 3.99935 0.666016H10.666C12.2955 0.666016 13.6861 1.84405 13.954 3.45135L15.1564 10.666H63.9993C65.0707 10.666 66.077 11.1811 66.7033 12.0503C67.33 12.9195 67.5004 14.037 67.1617 15.0534L57.1617 45.0534C56.708 46.4147 55.434 47.3327 53.9993 47.3327H17.3327C15.7032 47.3327 14.3126 46.1547 14.0447 44.5474L7.84225 7.33268H3.99935C2.15842 7.33268 0.666016 5.84028 0.666016 3.99935ZM16.2675 17.3327L20.1564 40.666H51.5967L59.3747 17.3327H16.2675Z" fill="#3CB54A"/>
<path fill-rule="evenodd" clip-rule="evenodd" d="M14 60.6667C14 56.9847 16.9848 54 20.6667 54C24.3486 54 27.3333 56.9847 27.3333 60.6667C27.3333 64.3487 24.3486 67.3333 20.6667 67.3333C16.9848 67.3333 14 64.3487 14 60.6667Z" fill="#3CB54A"/>
<path fill-rule="evenodd" clip-rule="evenodd" d="M44 60.6667C44 56.9847 46.9847 54 50.6667 54C54.3487 54 57.3333 56.9847 57.3333 60.6667C57.3333 64.3487 54.3487 67.3333 50.6667 67.3333C46.9847 67.3333 44 64.3487 44 60.6667Z" fill="#3CB54A"/>
</svg>
