<svg width="18" height="18" viewBox="0 0 18 18" fill="none" xmlns="http://www.w3.org/2000/svg">
<path d="M8.11623 0.609375C3.98397 0.609375 0.617859 3.97548 0.617859 8.10776C0.617859 12.24 3.98397 15.6127 8.11623 15.6127C9.88125 15.6127 11.5045 14.9941 12.7875 13.9671L15.9108 17.0889C16.0684 17.24 16.279 17.3233 16.4973 17.3211C16.7156 17.3189 16.9244 17.2312 17.0789 17.0769C17.2334 16.9227 17.3213 16.714 17.3239 16.4957C17.3264 16.2774 17.2433 16.0667 17.0925 15.9089L13.9691 12.7855C14.9969 11.5006 15.6162 9.87481 15.6162 8.10776C15.6162 3.97548 12.2485 0.609375 8.11623 0.609375ZM8.11623 2.27607C11.3478 2.27607 13.9479 4.87623 13.9479 8.10776C13.9479 11.3393 11.3478 13.946 8.11623 13.946C4.8847 13.946 2.28453 11.3393 2.28453 8.10776C2.28453 4.87623 4.8847 2.27607 8.11623 2.27607Z" fill="#7F7F8D"/>
</svg>
