<svg width="80" height="80" viewBox="0 0 80 80" fill="none" xmlns="http://www.w3.org/2000/svg">
<path d="M39.9997 78.6663C61.3547 78.6663 78.6663 61.3547 78.6663 39.9997C78.6663 18.6447 61.3547 1.33301 39.9997 1.33301C18.6447 1.33301 1.33301 18.6447 1.33301 39.9997C1.33301 61.3547 18.6447 78.6663 39.9997 78.6663Z" fill="#3CB54A"/>
<path d="M32.3495 56.0934L23.2828 47.2374C23.0867 47.0468 22.9308 46.8188 22.8244 46.5669C22.7179 46.315 22.6631 46.0442 22.6631 45.7708C22.6631 45.4973 22.7179 45.2266 22.8244 44.9746C22.9308 44.7227 23.0867 44.4947 23.2828 44.3041L26.2895 41.3708C26.6927 40.9801 27.2321 40.7616 27.7935 40.7616C28.3549 40.7616 28.8943 40.9801 29.2975 41.3708L34.6948 46.6468L49.8322 23.6334C50.1445 23.169 50.6252 22.8443 51.1726 22.7279C51.72 22.6114 52.2912 22.7124 52.7655 23.0094L56.3442 25.2574C56.5779 25.4011 56.7804 25.5904 56.9397 25.8138C57.0989 26.0373 57.2117 26.2904 57.2712 26.5583C57.3308 26.8261 57.336 27.1032 57.2864 27.3731C57.2369 27.643 57.1336 27.9002 56.9828 28.1294L39.0588 55.3881C38.6997 55.9216 38.2279 56.37 37.6768 56.7015C37.1256 57.033 36.5085 57.2397 35.8688 57.3069C35.2292 57.3742 34.5826 57.3004 33.9745 57.0907C33.3665 56.881 32.8118 56.5406 32.3495 56.0934Z" fill="white"/>
</svg>
