<svg width="24" height="24" viewBox="0 0 24 24" fill="none" xmlns="http://www.w3.org/2000/svg">
<g clip-path="url(#clip0_848_892)">
<path d="M21.2303 0C20.3997 0 19.6175 0.366212 19.085 1.00488L14.3415 6.69681C14.691 6.85758 15.0282 7.04746 15.3453 7.27369C16.2387 7.91163 16.8946 8.74695 17.346 9.66679L23.0189 4.93873C23.6575 4.40626 24.0237 3.62403 24.0237 2.79346C24.0237 1.25317 22.7706 0 21.2303 0Z" fill="#3CB54A"/>
<path d="M14.4743 8.49534C12.5539 7.12571 9.88932 7.27805 8.14103 8.85569C7.04899 9.84153 3.72672 12.8408 0.613922 13.5176L-0.0240173 13.6567C-0.0240173 13.6567 0.0235901 15.7507 0.658234 16.6951C1.90124 16.5562 2.9075 16.2991 3.25302 15.9536C2.48911 16.8571 1.90802 17.5104 1.45785 17.9992C1.82809 18.494 2.28402 18.9637 2.79617 19.4168C4.63253 18.6354 6.27041 17.2851 6.8048 16.7507C5.72777 18.5457 4.85189 19.8939 4.39138 20.5884C5.41622 19.9922 6.66527 19.2172 7.83422 18.3491C7.39724 18.786 6.82403 20.1588 6.3604 21.7266C6.87731 21.976 8.33072 22.4985 8.33072 22.4985C10.5624 22.3286 14.4384 17.0713 15.7435 15.06C17.1505 12.8928 16.5932 10.0085 14.4743 8.49534Z" fill="#3CB54A"/>
</g>
<defs>
<clipPath id="clip0_848_892">
<rect width="24" height="24" fill="white"/>
</clipPath>
</defs>
</svg>
