<svg width="80" height="76" viewBox="0 0 80 76" fill="none" xmlns="http://www.w3.org/2000/svg">
<path d="M15.6329 64.3844C14.2048 64.3844 12.8125 64.2361 11.4671 63.9552C12.0227 67.6184 12.3052 71.327 12.3099 75.0324C16.7255 73.5636 21.2254 72.4898 25.7689 71.8186C23.4698 69.5617 21.7326 66.7834 20.7165 63.7429C19.0714 64.1675 17.367 64.3844 15.6329 64.3844Z" fill="#3CB54A"/>
<path d="M59.2533 63.74C58.2185 66.8507 56.4626 69.6025 54.1963 71.8188C58.7414 72.4884 63.2428 73.5638 67.6599 75.0326C67.6646 71.3272 67.9471 67.6202 68.5028 63.9554C65.5054 64.5892 62.23 64.521 59.2533 63.74Z" fill="#3CB54A"/>
<path d="M76.6768 34.4885C72.7545 40.8458 66.071 45.3253 58.3106 46.2415C52.207 52.8971 42.4019 55.7606 33.6745 53.4135C31.7933 57.0713 28.7528 60.129 25.09 62.0527C30.0634 77.3242 52.1297 76.1209 55.3247 60.298C55.3247 60.2984 55.8632 57.5076 55.8632 57.5076L58.4995 58.5705C73.0671 64.4648 86.4111 47.1003 76.6768 34.4885Z" fill="#3CB54A"/>
<path d="M15.6329 59.702C21.1578 59.7596 26.5448 56.6071 29.2293 51.7886C26.3898 50.4359 23.8156 48.5379 21.6796 46.2446C14.1742 45.4083 7.23537 40.9659 3.28679 34.4978C-4.69574 44.8074 2.80809 59.7265 15.6329 59.702Z" fill="#3CB54A"/>
<path d="M9.67213 35.1986C11.9026 37.6085 14.6434 39.4191 17.662 40.5132C9.85038 25.6812 19.6076 6.8885 35.9502 4.46594C15.5471 -8.40557 -6.2152 17.0539 9.67213 35.1986Z" fill="#3CB54A"/>
<path d="M60.5722 13.8466C67.7903 24.0219 62.6692 37.9528 50.8887 40.3759C49.481 40.6787 48.0625 40.862 46.6637 40.9613C49.6099 41.5397 53.4733 41.877 56.9761 41.6699C67.5409 40.8334 75.7318 31.9209 75.7091 21.3776C75.8515 5.32712 57.3738 -4.57617 44.1118 4.40514C51.0933 5.31822 56.8466 8.59127 60.5722 13.8466Z" fill="#3CB54A"/>
<path d="M19.6286 29.18C19.7192 45.383 37.5285 54.9641 51.0606 46.2555C42.5494 45.6815 32.2473 42.3687 29.7069 33.6112C29.7053 33.6081 29.7053 33.605 29.7038 33.6034C28.002 28.7492 30.1887 23.1527 34.6282 20.6907C44.5076 15.2281 55.0888 26.3666 49.1392 35.9493C58.1728 34.5774 62.1879 24.4067 56.7527 16.5545C52.2218 10.1645 45.1326 8.82373 39.9849 8.82373C28.9263 8.76956 19.584 17.9286 19.6286 29.18Z" fill="#3CB54A"/>
<path d="M33.815 30.0557C33.7549 33.4068 36.5294 36.3109 39.9849 36.2959C43.3875 36.2959 46.1549 33.5286 46.1549 30.126C45.8224 21.9812 34.2358 21.9246 33.815 30.0557Z" fill="#3CB54A"/>
</svg>
