<svg width="40" height="40" viewBox="0 0 40 40" fill="none" xmlns="http://www.w3.org/2000/svg">
<g clip-path="url(#clip0_134_3689)">
<path d="M38.5445 30.2473C37.5762 29.2405 36.238 28.674 34.8412 28.6795C34.3275 28.68 33.8167 28.7561 33.3251 28.9053C31.974 29.299 31.1385 30.6497 31.3896 32.0344C31.5747 33.4415 32.7769 34.4916 34.1961 34.486C34.5524 34.486 34.8412 34.1971 34.8412 33.8408C34.8412 33.4845 34.5524 33.1957 34.1961 33.1957C33.4043 33.2172 32.7282 32.6281 32.6412 31.8408C32.4995 31.0827 32.9622 30.3424 33.7057 30.1376C34.0741 30.0269 34.4566 29.9704 34.8412 29.9699C35.8895 29.9693 36.8931 30.394 37.6227 31.1466C38.3523 31.8993 38.7454 32.9157 38.7122 33.9634C38.5781 36.0963 36.791 37.747 34.6541 37.7118H32.2606C29.409 37.7118 26.4541 36.0215 26.4541 33.1957C26.4541 32.8394 26.1653 32.5505 25.809 32.5505C25.4527 32.5505 25.1638 32.8394 25.1638 33.1957C25.1773 35.0482 26.1553 36.7597 27.7445 37.7118H26.4541C21.4025 37.7118 20.6477 34.0731 20.6477 31.9053V22.2279C20.6477 21.8716 20.3588 21.5828 20.0025 21.5828C19.6462 21.5828 19.3574 21.8716 19.3574 22.2279V31.9053C19.3574 34.0731 18.6025 37.7118 13.5509 37.7118H12.2606C13.8497 36.7597 14.8278 35.0482 14.8412 33.1957C14.8412 32.8394 14.5524 32.5505 14.1961 32.5505C13.8398 32.5505 13.5509 32.8394 13.5509 33.1957C13.5509 36.0215 10.5961 37.7118 7.74446 37.7118H5.35091C3.21408 37.747 1.42699 36.0963 1.29285 33.9634C1.25965 32.9157 1.65278 31.8993 2.38236 31.1466C3.11194 30.394 4.11557 29.9693 5.16381 29.9699C5.54844 29.9704 5.93093 30.0269 6.2993 30.1376C7.04284 30.3424 7.50552 31.0827 7.36381 31.8408C7.27684 32.6281 6.60077 33.2172 5.80898 33.1957C5.45266 33.1957 5.16381 33.4845 5.16381 33.8408C5.16381 34.1971 5.45266 34.486 5.80898 34.486C7.23797 34.5047 8.45495 33.4513 8.64123 32.0344C8.89232 30.6497 8.05686 29.299 6.70575 28.9053C6.20592 28.7535 5.68618 28.6774 5.16381 28.6795C3.76655 28.6789 2.4287 29.2447 1.456 30.2478C0.483298 31.2509 -0.0411409 32.6055 0.00252392 34.0021C0.164305 36.8295 2.51905 39.0309 5.35091 39.0021H13.5509C17.4219 39.0021 19.2025 37.1053 20.0025 35.2086C20.8025 37.1053 22.5832 39.0021 26.4541 39.0021H34.6541C37.486 39.0309 39.8407 36.8295 40.0025 34.0021C40.0451 32.6047 39.519 31.2498 38.5445 30.2473Z" fill="#14A085"/>
<path d="M22.2669 5.62782C21.6282 4.80847 22.2605 4.11169 23.2282 3.51815C26.454 1.58266 30.325 4.16331 32.9056 0.9375C32.9056 0.9375 34.1185 4.74395 32.1637 7.08589C30.7701 8.76331 27.0024 9.96976 27.0024 9.96976L22.2669 5.62782Z" fill="#26B99A"/>
<path d="M25.1636 15.7762C26.3357 16.6347 27.6445 17.2891 29.0345 17.7117C29.9802 18.0089 30.9659 18.159 31.9571 18.1569C34.0391 18.1244 36.1021 17.7562 38.0668 17.0665C34.9507 15.5052 35.1765 14.3698 33.6991 12.9762C33.262 12.5654 32.7793 12.206 32.2603 11.9052C31.3708 11.3886 30.385 11.0593 29.3636 10.9375L25.1636 15.7762Z" fill="#26B99A"/>
<path d="M27.9057 7.60845C29.111 7.26271 30.3778 7.1878 31.6154 7.38909H31.8348C36.1961 8.03425 38.067 7.38909 38.067 7.38909C38.067 7.38909 36.3638 15.8988 26.1187 13.3633L27.9057 7.60845Z" fill="#14A085"/>
<path d="M25.525 16.0471C34.8412 15.189 32.2605 22.8729 32.2605 22.8729C29.0347 20.9374 27.7444 22.2277 25.1637 21.5826C24.2936 21.418 23.5379 20.8836 23.0928 20.1181L25.525 16.0471Z" fill="#14A085"/>
<path d="M7.37045 11.46C6.57036 11.3903 5.80588 11.0975 5.164 10.6148C1.93819 8.0342 3.22851 3.51807 3.22851 3.51807C3.22851 3.51807 4.11883 5.80839 7.88658 6.52452C8.69029 6.67766 9.50715 6.75114 10.3253 6.74387C14.1963 6.74387 15.5963 8.8342 15.4866 11.2019L7.37045 11.46Z" fill="#14A085"/>
<path d="M15.1895 11.9569C3.57659 7.89879 8.38949 0.9375 8.38949 0.9375C8.38949 0.9375 9.03465 4.16331 14.1959 3.51814C15.2736 3.35478 16.3752 3.54253 17.3379 4.05363L15.1895 11.9569Z" fill="#26B99A"/>
<path d="M13.2217 15.9955C5.71198 19.3955 0.647461 13.1955 0.647461 13.1955C3.50553 12.3762 4.55714 11.5633 5.92488 11.073C6.92518 10.7334 7.97882 10.5782 9.03456 10.6149C9.60502 10.6142 10.1746 10.6595 10.7378 10.7504L13.2217 15.9955Z" fill="#26B99A"/>
<path d="M13.6153 14.5828C12.263 14.8209 11.0925 15.6614 10.4346 16.8666C10.3942 16.9311 10.3576 16.9979 10.3249 17.0666C9.57178 18.5945 8.4661 19.9213 7.09912 20.9376C7.09912 20.9376 11.7572 22.4924 15.654 20.4795L13.6153 14.5828Z" fill="#14A085"/>
<path d="M16.8931 20.0536C15.5382 20.8794 14.2092 20.4407 13.1576 19.4084C12.106 18.3762 11.6737 17.0278 12.5124 15.6729V9.44067C11.6866 8.08583 12.1253 6.7568 13.1576 5.70518C14.1898 4.65357 15.5382 4.22131 16.8931 5.06002H23.1124C24.4673 4.23422 25.7963 4.67293 26.8479 5.70518C27.8995 6.73744 28.3318 8.08583 27.4931 9.44067V15.66C28.3189 17.0149 27.8802 18.3439 26.8479 19.3955C25.8156 20.4471 24.4673 20.8794 23.1124 20.0407L16.8931 20.0536Z" fill="#894B9D"/>
<path d="M13.5508 24.8083H16.1314C18.2693 24.8083 20.0024 26.5414 20.0024 28.6793V29.9696H17.4217C15.2839 29.9696 13.5508 28.2365 13.5508 26.0987V24.8083Z" fill="#7ED09E"/>
<path d="M22.5831 29.9697H20.0025V28.6794C20.0025 26.5415 21.7356 24.8084 23.8735 24.8084H26.4541V26.0988C26.4541 28.2366 24.721 29.9697 22.5831 29.9697Z" fill="#7ED09E"/>
<path d="M21.5638 10.4989C22.6294 9.27991 23.2203 7.71791 23.2283 6.09885C23.2327 5.74489 23.1937 5.39172 23.1122 5.04724C22.7315 3.51821 21.4864 2.87305 20.0025 2.87305C18.5186 2.87305 17.2735 3.51821 16.8928 5.04724C16.8113 5.39172 16.7723 5.74489 16.7767 6.09885C16.7847 7.71791 17.3756 9.27991 18.4412 10.4989H21.5638Z" fill="#955BA5"/>
<path d="M17.951 10.9891C16.7321 9.92342 15.1701 9.33252 13.551 9.32455C13.197 9.32018 12.8439 9.35918 12.4994 9.44068C10.9704 9.82132 10.3252 11.0665 10.3252 12.5504C10.3252 14.0342 10.9704 15.2794 12.4994 15.66C12.8439 15.7415 13.197 15.7805 13.551 15.7762C15.1701 15.7682 16.7321 15.1773 17.951 14.1116V10.9891Z" fill="#955BA5"/>
<path d="M18.4412 14.6021C17.3756 15.821 16.7847 17.383 16.7767 19.0021C16.7723 19.356 16.8113 19.7092 16.8928 20.0537C17.2735 21.5827 18.5186 22.2279 20.0025 22.2279C21.4864 22.2279 22.7315 21.5827 23.1122 20.0537C23.1937 19.7092 23.2327 19.356 23.2283 19.0021C23.2203 17.383 22.6294 15.821 21.5638 14.6021H18.4412Z" fill="#955BA5"/>
<path d="M22.0542 14.1116C23.2731 15.1773 24.8351 15.7682 26.4542 15.7762C26.8082 15.7805 27.1613 15.7415 27.5058 15.66C29.0348 15.2794 29.68 14.0342 29.68 12.5504C29.68 11.0665 29.0348 9.82132 27.5058 9.44068C27.1613 9.35918 26.8082 9.32018 26.4542 9.32455C24.8351 9.33252 23.2731 9.92342 22.0542 10.9891V14.1116Z" fill="#955BA5"/>
<path d="M20.0025 15.131C21.4278 15.131 22.5832 13.9756 22.5832 12.5504C22.5832 11.1251 21.4278 9.96973 20.0025 9.96973C18.5773 9.96973 17.4219 11.1251 17.4219 12.5504C17.4219 13.9756 18.5773 15.131 20.0025 15.131Z" fill="#F0C419"/>
</g>
<defs>
<clipPath id="clip0_134_3689">
<rect width="40" height="40" fill="white"/>
</clipPath>
</defs>
</svg>
