<svg width="40" height="40" viewBox="0 0 40 40" fill="none" xmlns="http://www.w3.org/2000/svg">
<g clip-path="url(#clip0_134_3644)">
<path d="M24.0869 6.22671C25.3914 5.64551 26.7797 5.27426 28.2002 5.12671C28.2002 5.12671 29.6602 10.06 27.4002 13.3334C25.1402 16.6067 20.0002 17 20.0002 17C20.0002 17 14.8735 16.6134 12.6135 13.3334C10.3535 10.0534 11.8135 5.12671 11.8135 5.12671C13.2305 5.27374 14.616 5.64035 15.9202 6.21338L24.0869 6.22671Z" fill="#DF4D60"/>
<path d="M24.6668 9C24.6668 4.58 20.0002 1 20.0002 1C20.0002 1 15.3335 4.58 15.3335 9C15.3335 13.42 20.0002 17 20.0002 17C20.0002 17 24.6668 13.42 24.6668 9Z" fill="#FF5364"/>
<path d="M40 25C39.9975 21.4326 37.8095 18.2312 34.4867 16.9333C35.0228 16.4327 35.329 15.7334 35.3333 15C35.337 13.6886 34.3866 12.5692 33.0919 12.3601C31.7973 12.1509 30.5428 12.9141 30.1333 14.16C30.0583 14.3862 30.1097 14.6353 30.2681 14.8134C30.4266 14.9916 30.668 15.0716 30.9015 15.0234C31.1349 14.9753 31.325 14.8062 31.4 14.58C31.6146 13.9334 32.282 13.5526 32.9478 13.6969C33.6135 13.8411 34.0635 14.4639 33.9913 15.1413C33.9191 15.8187 33.3479 16.3327 32.6667 16.3333H7.33333C6.65213 16.3327 6.08094 15.8187 6.00873 15.1413C5.93651 14.4639 6.38649 13.8411 7.05225 13.6969C7.71801 13.5526 8.38542 13.9334 8.6 14.58C8.67503 14.8062 8.86506 14.9753 9.09853 15.0234C9.332 15.0716 9.57342 14.9916 9.73187 14.8134C9.89031 14.6353 9.94169 14.3862 9.86667 14.16C9.4572 12.9141 8.20268 12.1509 6.90807 12.3601C5.61345 12.5692 4.66304 13.6886 4.66667 15C4.671 15.7334 4.97724 16.4327 5.51333 16.9333C2.19053 18.2312 0.00246116 21.4326 0 25C0 29.7866 3.21333 33 8 33C9.37503 33.0182 10.7209 32.603 11.8467 31.8133C10.76 33.3 8.95333 34.3333 6 34.3333C5.63181 34.3333 5.33333 34.6318 5.33333 35C5.33333 35.3682 5.63181 35.6666 6 35.6666C11.5067 35.6666 14.6667 32.2666 14.6667 26.3333C14.6979 24.9095 14.1461 23.5347 13.139 22.5276C12.132 21.5206 10.7572 20.9687 9.33333 21C6.41333 21 4.66667 22.4933 4.66667 25C4.66667 27.5066 6.4 29 8 29C9.6 29 11.3333 28.1266 11.3333 25.6666C11.3333 25.2984 11.0349 25 10.6667 25C10.2985 25 10 25.2984 10 25.6666C10.0679 26.2151 9.87909 26.7642 9.48832 27.1549C9.09755 27.5457 8.54845 27.7345 8 27.6666C7.04 27.6666 6 26.6466 6 25C6 22.7933 7.81333 22.3333 9.33333 22.3333C10.4014 22.3094 11.4327 22.7231 12.1881 23.4785C12.9435 24.2339 13.3573 25.2653 13.3333 26.3333C13.3333 29.2788 10.9455 31.6666 8 31.6666C3.95333 31.6666 1.33333 29.0466 1.33333 25C1.33333 20.9499 4.61658 17.6666 8.66667 17.6666H31.3333C35.3834 17.6666 38.6667 20.9499 38.6667 25C38.6667 29.0466 36.0467 31.6666 32 31.6666C29.0545 31.6666 26.6667 29.2788 26.6667 26.3333C26.6427 25.2653 27.0565 24.2339 27.8119 23.4785C28.5673 22.7231 29.5986 22.3094 30.6667 22.3333C32.1867 22.3333 34 22.7933 34 25C34 26.6466 32.96 27.6666 32 27.6666C31.4516 27.7345 30.9024 27.5457 30.5117 27.1549C30.1209 26.7642 29.9321 26.2151 30 25.6666C30 25.2984 29.7015 25 29.3333 25C28.9651 25 28.6667 25.2984 28.6667 25.6666C28.6667 28.1266 30.3867 29 32 29C33.6133 29 35.3333 27.4733 35.3333 25C35.3333 22.5266 33.5867 21 30.6667 21C29.2428 20.9687 27.868 21.5206 26.861 22.5276C25.8539 23.5347 25.3021 24.9095 25.3333 26.3333C25.3333 32.2666 28.4933 35.6666 34 35.6666C34.3682 35.6666 34.6667 35.3682 34.6667 35C34.6667 34.6318 34.3682 34.3333 34 34.3333C31.0467 34.3333 29.24 33.3 28.1533 31.8133C29.2791 32.603 30.625 33.0182 32 33C36.7867 33 40 29.7866 40 25Z" fill="#65DDB9"/>
<path d="M16.16 19.6666C15.8071 19.5823 15.4516 19.7956 15.36 20.1466C15.3027 20.3226 15.3212 20.5144 15.411 20.6763C15.5007 20.8381 15.6537 20.9553 15.8333 20.9999C15.92 20.9999 18 21.6666 18 24.9999V32.3333C18 35.9199 16.9067 37.6666 14.6667 37.6666C14.2985 37.6666 14 37.9651 14 38.3333C14 38.7015 14.2985 38.9999 14.6667 38.9999C16.7933 38.9999 19.3333 37.8466 19.3333 32.3333V24.9999C19.3333 20.5333 16.2933 19.7199 16.16 19.6666Z" fill="#26B99A"/>
<path d="M25.3332 37.6666C23.0932 37.6666 21.9998 35.9199 21.9998 32.3333V24.9999C21.9998 21.6199 24.0665 20.9999 24.1665 20.9999C24.5347 20.9097 24.76 20.5381 24.6698 20.1699C24.5796 19.8017 24.208 19.5764 23.8398 19.6666C23.7065 19.6666 20.6665 20.5133 20.6665 24.9999V32.3333C20.6665 37.8466 23.2065 38.9999 25.3332 38.9999C25.7014 38.9999 25.9998 38.7015 25.9998 38.3333C25.9998 37.9651 25.7014 37.6666 25.3332 37.6666Z" fill="#26B99A"/>
</g>
<defs>
<clipPath id="clip0_134_3644">
<rect width="40" height="40" fill="white"/>
</clipPath>
</defs>
</svg>
