<svg width="40" height="40" viewBox="0 0 40 40" fill="none" xmlns="http://www.w3.org/2000/svg">
<g clip-path="url(#clip0_134_3592)">
<path d="M27.4576 24.4068C29.3694 24.4068 35.5932 23.7288 35.5932 14.9153C35.5932 14.5408 35.2896 14.2373 34.9152 14.2373C34.5408 14.2373 34.2372 14.5408 34.2372 14.9153C34.2372 22.2576 29.4915 23.0509 27.4576 23.0509C24.7677 22.9518 22.2126 24.2293 20.6779 26.4407V20.339C20.6779 19.9646 20.3744 19.661 20 19.661C19.6255 19.661 19.322 19.9646 19.322 20.339V26.4407C17.7874 24.2293 15.2322 22.9518 12.5423 23.0509C10.5084 23.0509 5.76267 22.2576 5.76267 14.9153C5.76267 14.5408 5.45913 14.2373 5.0847 14.2373C4.71027 14.2373 4.40674 14.5408 4.40674 14.9153C4.40674 23.7288 10.6305 24.4068 12.5423 24.4068C17.2271 24.4068 19.322 27.7966 19.322 31.1865V31.8644H12.6847C10.5513 31.8344 8.73714 33.4148 8.47453 35.5322C8.37368 36.6721 8.75761 37.8017 9.53216 38.6441C10.7276 39.922 12.5962 40.3125 14.2033 39.6204C15.1911 39.1927 15.7308 38.119 15.4847 37.0712C15.2636 36.0007 14.3133 35.2382 13.2203 35.2543C12.8459 35.2543 12.5423 35.5578 12.5423 35.9322C12.5423 36.3067 12.8459 36.6102 13.2203 36.6102C13.6796 36.6032 14.0761 36.9307 14.1559 37.3831C14.2637 37.8032 14.0473 38.2388 13.6474 38.4068C12.571 38.8605 11.3256 38.5892 10.5356 37.7288C10.0235 37.1578 9.77716 36.3967 9.85759 35.6339C10.0558 34.2312 11.2683 33.1961 12.6847 33.2204H19.322V39.3221C19.322 39.6965 19.6255 40 20 40C20.3744 40 20.6779 39.6965 20.6779 39.3221V33.2204H27.3152C28.7509 33.1839 29.9826 34.2371 30.1694 35.661C30.2499 36.4238 30.0036 37.1849 29.4915 37.7559C28.7014 38.6163 27.456 38.8877 26.3796 38.4339C25.9797 38.266 25.7633 37.8303 25.8711 37.4102C25.9374 36.9571 26.3218 36.6186 26.7796 36.6102C27.154 36.6102 27.4576 36.3067 27.4576 35.9322C27.4576 35.5578 27.154 35.2543 26.7796 35.2543C25.6783 35.2407 24.7249 36.017 24.5152 37.0983C24.2691 38.1462 24.8088 39.2198 25.7966 39.6475C27.1224 40.2495 28.669 40.097 29.8517 39.2474C31.0343 38.3979 31.6727 36.9809 31.5254 35.5322C31.2628 33.4148 29.4486 31.8344 27.3152 31.8644H20.6779V31.1865C20.6779 27.7966 22.7728 24.4068 27.4576 24.4068Z" fill="#14A085"/>
<path d="M7.7967 12.2033C7.7967 10.3321 5.08484 8.1355 5.08484 8.1355C5.08484 8.1355 2.37297 10.3321 2.37297 12.2033C2.30793 12.9406 2.57268 13.6688 3.09602 14.1921C3.61937 14.7155 4.34758 14.9802 5.08484 14.9152C5.82209 14.9802 6.55031 14.7155 7.07365 14.1921C7.59699 13.6688 7.86174 12.9406 7.7967 12.2033Z" fill="#F0C419"/>
<path d="M11.661 27.5798C10.3661 28.9357 7.84408 28.6171 7.84408 28.6171C7.84408 28.6171 7.43052 26.1154 8.72544 24.7662C10.0204 23.4171 12.5424 23.7289 12.5424 23.7289C12.5424 23.7289 12.9559 26.2306 11.661 27.5798Z" fill="#7ED09E"/>
<path d="M10.5833 22.2643C10.2036 21.2067 11.1799 19.8982 11.1799 19.8982C11.1799 19.8982 12.7596 20.2982 13.1392 21.3558C13.5189 22.4134 12.5426 23.7287 12.5426 23.7287C12.5426 23.7287 10.9629 23.3287 10.5833 22.2643Z" fill="#7ED09E"/>
<path d="M32.2035 12.2033C32.2035 10.3321 34.9154 8.1355 34.9154 8.1355C34.9154 8.1355 37.6273 10.3321 37.6273 12.2033C37.6923 12.9406 37.4276 13.6688 36.9042 14.1921C36.3809 14.7155 35.6527 14.9802 34.9154 14.9152C34.1781 14.9802 33.4499 14.7155 32.9266 14.1921C32.4032 13.6688 32.1385 12.9406 32.2035 12.2033Z" fill="#F0C419"/>
<path d="M28.3392 27.5798C29.6341 28.9357 32.1562 28.6171 32.1562 28.6171C32.1562 28.6171 32.5697 26.1154 31.2748 24.7662C29.9799 23.4171 27.4578 23.7289 27.4578 23.7289C27.4578 23.7289 27.0443 26.2306 28.3392 27.5798Z" fill="#7ED09E"/>
<path d="M29.417 22.2643C29.7967 21.2067 28.8204 19.8982 28.8204 19.8982C28.8204 19.8982 27.2408 20.2982 26.8611 21.3558C26.4815 22.4134 27.4577 23.7287 27.4577 23.7287C27.4577 23.7287 29.0374 23.3287 29.417 22.2643Z" fill="#7ED09E"/>
<path d="M25.2205 5.60678C24.8137 4.19661 23.6001 1.80339 20.0001 0C16.4001 1.80339 15.1866 4.19661 14.7798 5.60678V17.2068H25.2205V5.60678Z" fill="#F29C1F"/>
<path d="M11.8643 5.42383H13.2202C16.9645 5.42383 19.9999 8.45919 19.9999 12.2035V20.3391H18.6439C14.8996 20.3391 11.8643 17.3037 11.8643 13.5594V5.42383Z" fill="#F0C419"/>
<path d="M26.7797 5.42383H28.1356V13.5594C28.1356 17.3037 25.1002 20.3391 21.3559 20.3391H20V12.2035C20 8.45919 23.0354 5.42383 26.7797 5.42383Z" fill="#F3D55B"/>
</g>
<defs>
<clipPath id="clip0_134_3592">
<rect width="40" height="40" fill="white"/>
</clipPath>
</defs>
</svg>
