<svg width="40" height="40" viewBox="0 0 40 40" fill="none" xmlns="http://www.w3.org/2000/svg">
<g clip-path="url(#clip0_134_3605)">
<path d="M19.9999 40.0002C19.6255 40.0002 19.322 39.6966 19.322 39.3222C19.322 31.8646 17.9999 26.2442 15.4033 22.5493L16.5084 21.7629C17.816 23.6893 18.7815 25.8269 19.3626 28.0815C19.4934 23.6758 20.749 19.3768 23.0101 15.5934L23.0643 15.5052L24.1898 13.8713L25.3016 14.6442L24.2169 16.2239V16.2578C21.8643 19.973 20.6779 24.5493 20.6779 29.8307V39.3222C20.6779 39.6966 20.3744 40.0002 19.9999 40.0002Z" fill="#24AE5F"/>
<path d="M28.061 29.5594C28.061 29.5594 27.6881 32.9899 25.4644 34.373C23.2407 35.756 20 34.5764 20 34.5764C20 34.5764 20.3729 31.1865 22.5966 29.7696C24.8203 28.3526 28.061 29.5594 28.061 29.5594Z" fill="#7ED09E"/>
<path d="M10.9761 31.6408C10.9761 31.6408 12.1557 34.8747 14.6507 35.7086C17.1456 36.5425 19.9998 34.5764 19.9998 34.5764C19.9998 34.5764 18.8201 31.3425 16.3252 30.5086C13.8303 29.6747 10.9761 31.6408 10.9761 31.6408Z" fill="#7ED09E"/>
<path d="M26.3794 21.0169C25.8091 21.8921 24.9348 22.525 23.9252 22.7932C22.8827 22.8632 21.8513 22.5444 21.0303 21.8983C21.5993 21.0205 22.4739 20.3852 23.4845 20.1152C24.528 20.0458 25.5599 20.3673 26.3794 21.0169Z" fill="#7ED09E"/>
<path d="M39.6608 9.4916C39.6608 10.2102 38.9354 10.8475 38.7862 11.5255C38.6371 12.2035 39.0167 13.0984 38.7252 13.7221C38.4337 14.3458 37.5049 14.6035 37.0777 15.1458C36.6506 15.6882 36.6235 16.6645 36.0879 17.1052C35.5523 17.5458 34.6235 17.3492 34.0065 17.6543C33.3896 17.9594 32.9557 18.8001 32.2845 18.9831C31.6133 19.1662 30.8472 18.5289 30.1693 18.5289C29.4913 18.5289 28.7116 19.1119 28.054 18.956C27.3964 18.8001 26.9421 17.9391 26.332 17.634C25.7218 17.3289 24.7862 17.5187 24.2506 17.078C23.715 16.6374 23.6879 15.6747 23.2608 15.1255C22.8337 14.5764 21.9049 14.3391 21.6133 13.7018C21.3218 13.0645 21.7082 12.2035 21.5523 11.5255C21.3964 10.8475 20.6777 10.2102 20.6777 9.4916C20.6777 8.77296 21.4032 8.13567 21.5523 7.45771C21.7015 6.77974 21.3218 5.88483 21.6133 5.2611C21.9049 4.63737 22.8337 4.37974 23.2608 3.83737C23.6879 3.29499 23.715 2.31872 24.2506 1.87805C24.7862 1.43737 25.715 1.63398 26.332 1.32889C26.9489 1.02381 27.3828 0.18313 28.054 7.92742e-05C28.7252 -0.182972 29.4913 0.454317 30.1693 0.454317C30.8472 0.454317 31.6269 -0.128734 32.2845 7.92742e-05C32.9421 0.128893 33.3964 1.01703 34.0065 1.35601C34.6167 1.69499 35.5523 1.47127 36.0879 1.91194C36.6235 2.35262 36.6506 3.31533 37.0777 3.86449C37.5049 4.41364 38.4337 4.65093 38.7252 5.28822C39.0167 5.9255 38.6303 6.77974 38.7862 7.45771C38.9421 8.13567 39.6608 8.77296 39.6608 9.4916Z" fill="#FF5364"/>
<path d="M30.1694 10.8476C30.9183 10.8476 31.5253 10.2405 31.5253 9.49167C31.5253 8.74281 30.9183 8.13574 30.1694 8.13574C29.4205 8.13574 28.8135 8.74281 28.8135 9.49167C28.8135 10.2405 29.4205 10.8476 30.1694 10.8476Z" fill="#F3D55B"/>
<path d="M19.3219 17.6272C19.3219 18.3458 18.5965 18.9831 18.4473 19.6611C18.2982 20.3391 18.6779 21.234 18.3863 21.8577C18.0948 22.4814 17.166 22.7391 16.7389 23.2814C16.3117 23.8238 16.2846 24.8001 15.749 25.2407C15.2134 25.6814 14.2846 25.4848 13.6677 25.7899C13.0507 26.095 12.6168 26.956 11.9456 27.1458C11.2745 27.3357 10.5084 26.6645 9.83039 26.6645C9.15243 26.6645 8.37277 27.2475 7.71514 27.0916C7.05751 26.9357 6.60327 26.0746 5.9931 25.7357C5.38294 25.3967 4.44734 25.6204 3.91175 25.1797C3.37616 24.7391 3.34904 23.7763 2.92192 23.2272C2.4948 22.678 1.56599 22.4407 1.27446 21.8035C0.982935 21.1662 1.36938 20.3391 1.21344 19.6611C1.05751 18.9831 0.338867 18.3458 0.338867 17.6272C0.338867 16.9085 1.06429 16.2713 1.21344 15.5933C1.3626 14.9153 0.982935 14.0204 1.27446 13.3967C1.56599 12.773 2.4948 12.5153 2.92192 11.973C3.34904 11.4306 3.37616 10.4543 3.91175 10.0136C4.44734 9.57295 5.37616 9.76956 5.9931 9.46448C6.61005 9.15939 7.04395 8.29837 7.71514 8.10854C8.38632 7.91871 9.13209 8.53566 9.83039 8.53566C10.5287 8.53566 11.288 7.95261 11.9456 8.10854C12.6033 8.26448 13.0575 9.12549 13.6677 9.46448C14.2779 9.80346 15.2134 9.57973 15.749 10.0204C16.2846 10.4611 16.3117 11.4238 16.7389 11.973C17.166 12.5221 18.0948 12.7594 18.3863 13.3967C18.6779 14.034 18.2914 14.9153 18.4473 15.5933C18.6033 16.2713 19.3219 16.9085 19.3219 17.6272Z" fill="#FF5364"/>
<path d="M9.83054 18.9831C10.5794 18.9831 11.1865 18.376 11.1865 17.6272C11.1865 16.8783 10.5794 16.2712 9.83054 16.2712C9.08168 16.2712 8.47461 16.8783 8.47461 17.6272C8.47461 18.376 9.08168 18.9831 9.83054 18.9831Z" fill="#F3D55B"/>
<path d="M30.1697 6.10174C29.7952 6.10174 29.4917 5.79821 29.4917 5.42378V3.38988C29.4917 3.01545 29.7952 2.71191 30.1697 2.71191C30.5441 2.71191 30.8476 3.01545 30.8476 3.38988V5.42378C30.8476 5.79821 30.5441 6.10174 30.1697 6.10174Z" fill="#FB7B76"/>
<path d="M28.1357 6.64423C27.8925 6.64519 27.6675 6.51585 27.5459 6.30525L26.5289 4.54931C26.4078 4.33859 26.4084 4.07926 26.5303 3.86901C26.6522 3.65877 26.8771 3.52955 27.1201 3.53003C27.3632 3.53051 27.5875 3.66062 27.7086 3.87135L28.7256 5.62728C28.8469 5.83746 28.8467 6.09648 28.7249 6.30642C28.6031 6.51636 28.3784 6.64519 28.1357 6.64423Z" fill="#FB7B76"/>
<path d="M26.6442 8.13571C26.5255 8.13653 26.4086 8.10614 26.3053 8.04758L24.5493 7.03063C24.3386 6.90952 24.2085 6.68519 24.208 6.44215C24.2075 6.1991 24.3367 5.97426 24.547 5.85232C24.7572 5.73038 25.0166 5.72986 25.2273 5.85097L26.9832 6.86792C27.2518 7.02013 27.3837 7.33462 27.3039 7.63289C27.2242 7.93116 26.953 8.13787 26.6442 8.13571Z" fill="#FB7B76"/>
<path d="M26.1015 10.1697H24.0676C23.6932 10.1697 23.3896 9.86612 23.3896 9.49169C23.3896 9.11726 23.6932 8.81372 24.0676 8.81372H26.1015C26.4759 8.81372 26.7795 9.11726 26.7795 9.49169C26.7795 9.86612 26.4759 10.1697 26.1015 10.1697Z" fill="#FB7B76"/>
<path d="M24.8878 13.2203C24.5791 13.2225 24.3079 13.0157 24.2281 12.7175C24.1484 12.4192 24.2802 12.1047 24.5489 11.9525L26.3048 10.9356C26.6306 10.7483 27.0464 10.8606 27.2336 11.1864C27.4208 11.5122 27.3085 11.928 26.9828 12.1152L25.2268 13.1322C25.1235 13.1907 25.0066 13.2211 24.8878 13.2203Z" fill="#FB7B76"/>
<path d="M27.1187 15.451C26.876 15.452 26.6513 15.3231 26.5295 15.1132C26.4077 14.9032 26.4075 14.6442 26.5288 14.434L27.5458 12.6781C27.733 12.3523 28.1488 12.24 28.4746 12.4273C28.8003 12.6145 28.9126 13.0303 28.7254 13.3561L27.7085 15.112C27.5869 15.3226 27.3618 15.4519 27.1187 15.451Z" fill="#FB7B76"/>
<path d="M30.1697 16.2712C29.7952 16.2712 29.4917 15.9676 29.4917 15.5932V13.5593C29.4917 13.1849 29.7952 12.8813 30.1697 12.8813C30.5441 12.8813 30.8476 13.1849 30.8476 13.5593V15.5932C30.8476 15.9676 30.5441 16.2712 30.1697 16.2712Z" fill="#FB7B76"/>
<path d="M33.2203 15.451C32.9771 15.4519 32.7521 15.3226 32.6305 15.112L31.6135 13.3561C31.4263 13.0303 31.5386 12.6145 31.8644 12.4273C32.1901 12.24 32.606 12.3523 32.7932 12.6781L33.8101 14.434C33.9315 14.6442 33.9312 14.9032 33.8095 15.1132C33.6877 15.3231 33.463 15.452 33.2203 15.451Z" fill="#FB7B76"/>
<path d="M35.451 13.2203C35.3322 13.2211 35.2153 13.1907 35.112 13.1322L33.3561 12.1152C33.0303 11.928 32.918 11.5122 33.1052 11.1864C33.2924 10.8606 33.7083 10.7483 34.034 10.9356L35.79 11.9525C36.0586 12.1047 36.1904 12.4192 36.1107 12.7175C36.0309 13.0157 35.7597 13.2225 35.451 13.2203Z" fill="#FB7B76"/>
<path d="M36.2709 10.1697H34.237C33.8626 10.1697 33.5591 9.86612 33.5591 9.49169C33.5591 9.11726 33.8626 8.81372 34.237 8.81372H36.2709C36.6454 8.81372 36.9489 9.11726 36.9489 9.49169C36.9489 9.86612 36.6454 10.1697 36.2709 10.1697Z" fill="#FB7B76"/>
<path d="M33.695 8.13559C33.3862 8.13774 33.115 7.93103 33.0353 7.63276C32.9555 7.33449 33.0874 7.02 33.356 6.86779L35.1119 5.85084C35.4377 5.66362 35.8535 5.77593 36.0407 6.10169C36.228 6.42744 36.1156 6.84328 35.7899 7.0305L34.034 8.04745C33.9306 8.10601 33.8137 8.13641 33.695 8.13559Z" fill="#FB7B76"/>
<path d="M32.2031 6.6441C31.9604 6.64507 31.7357 6.51623 31.614 6.30629C31.4922 6.09635 31.4919 5.83733 31.6133 5.62715L32.6302 3.87122C32.8175 3.54546 33.2333 3.43316 33.5591 3.62037C33.8848 3.80759 33.9971 4.22343 33.8099 4.54918L32.793 6.30512C32.6714 6.51572 32.4463 6.64506 32.2031 6.6441Z" fill="#FB7B76"/>
<path d="M9.83031 14.2372C9.45588 14.2372 9.15234 13.9337 9.15234 13.5593V11.5254C9.15234 11.1509 9.45588 10.8474 9.83031 10.8474C10.2047 10.8474 10.5083 11.1509 10.5083 11.5254V13.5593C10.5083 13.9337 10.2047 14.2372 9.83031 14.2372Z" fill="#FB7B76"/>
<path d="M7.79649 14.7796C7.55331 14.7806 7.32824 14.6512 7.20666 14.4406L6.18971 12.6847C6.00249 12.3589 6.1148 11.9431 6.44055 11.7559C6.76631 11.5687 7.18215 11.681 7.36937 12.0067L8.38632 13.7626C8.50767 13.9728 8.50741 14.2318 8.38565 14.4418C8.26388 14.6517 8.03918 14.7806 7.79649 14.7796Z" fill="#FB7B76"/>
<path d="M6.30489 16.2712C6.18612 16.272 6.06923 16.2416 5.9659 16.1831L4.20997 15.1661C3.99924 15.045 3.86914 14.8207 3.86865 14.5776C3.86817 14.3346 3.99739 14.1098 4.20764 13.9878C4.41788 13.8659 4.67721 13.8654 4.88794 13.9865L6.64387 15.0034C6.91249 15.1556 7.04434 15.4701 6.96458 15.7684C6.88483 16.0667 6.61363 16.2734 6.30489 16.2712Z" fill="#FB7B76"/>
<path d="M5.76265 18.3052H3.72875C3.35432 18.3052 3.05078 18.0016 3.05078 17.6272C3.05078 17.2528 3.35432 16.9492 3.72875 16.9492H5.76265C6.13708 16.9492 6.44061 17.2528 6.44061 17.6272C6.44061 18.0016 6.13708 18.3052 5.76265 18.3052Z" fill="#FB7B76"/>
<path d="M4.54898 21.356C4.24024 21.3582 3.96903 21.1515 3.88928 20.8532C3.80953 20.5549 3.94138 20.2405 4.21 20.0882L5.96593 19.0713C6.29168 18.8841 6.70753 18.9964 6.89474 19.3221C7.08196 19.6479 6.96965 20.0637 6.6439 20.251L4.88796 21.2679C4.78464 21.3265 4.66774 21.3569 4.54898 21.356Z" fill="#FB7B76"/>
<path d="M6.77978 23.5865C6.53709 23.5874 6.31239 23.4586 6.19063 23.2487C6.06886 23.0387 6.0686 22.7797 6.18995 22.5695L7.2069 20.8136C7.39412 20.4878 7.80996 20.3755 8.13572 20.5628C8.46147 20.75 8.57378 21.1658 8.38656 21.4916L7.36962 23.2475C7.24803 23.4581 7.02296 23.5874 6.77978 23.5865Z" fill="#FB7B76"/>
<path d="M9.83031 24.4069C9.45588 24.4069 9.15234 24.1034 9.15234 23.729V21.6951C9.15234 21.3206 9.45588 21.0171 9.83031 21.0171C10.2047 21.0171 10.5083 21.3206 10.5083 21.6951V23.729C10.5083 24.1034 10.2047 24.4069 9.83031 24.4069Z" fill="#FB7B76"/>
<path d="M12.8813 23.5866C12.6382 23.5876 12.4131 23.4582 12.2915 23.2476L11.2746 21.4917C11.1534 21.281 11.154 21.0216 11.2759 20.8114C11.3978 20.6012 11.6227 20.4719 11.8657 20.4724C12.1088 20.4729 12.3331 20.603 12.4542 20.8137L13.4712 22.5697C13.5925 22.7798 13.5923 23.0389 13.4705 23.2488C13.3487 23.4587 13.124 23.5876 12.8813 23.5866Z" fill="#FB7B76"/>
<path d="M15.112 21.3559C14.9933 21.3567 14.8764 21.3264 14.773 21.2678L13.0171 20.2508C12.8064 20.1297 12.6763 19.9054 12.6758 19.6624C12.6753 19.4193 12.8045 19.1945 13.0148 19.0725C13.225 18.9506 13.4843 18.9501 13.6951 19.0712L15.451 20.0881C15.7196 20.2403 15.8515 20.5548 15.7717 20.8531C15.692 21.1514 15.4208 21.3581 15.112 21.3559Z" fill="#FB7B76"/>
<path d="M15.9321 18.3052H13.8982C13.5238 18.3052 13.2202 18.0016 13.2202 17.6272C13.2202 17.2528 13.5238 16.9492 13.8982 16.9492H15.9321C16.3065 16.9492 16.61 17.2528 16.61 17.6272C16.61 18.0016 16.3065 18.3052 15.9321 18.3052Z" fill="#FB7B76"/>
<path d="M13.3561 16.2713C13.0474 16.2735 12.7762 16.0668 12.6964 15.7685C12.6167 15.4702 12.7485 15.1557 13.0171 15.0035L14.7731 13.9866C15.0988 13.7994 15.5147 13.9117 15.7019 14.2374C15.8891 14.5632 15.7768 14.979 15.451 15.1662L13.6951 16.1832C13.5918 16.2418 13.4749 16.2721 13.3561 16.2713Z" fill="#FB7B76"/>
<path d="M11.8643 14.7797C11.6216 14.7807 11.3969 14.6519 11.2751 14.4419C11.1533 14.232 11.1531 13.973 11.2744 13.7628L12.2914 12.0068C12.4125 11.7961 12.6368 11.666 12.8799 11.6655C13.1229 11.665 13.3478 11.7943 13.4697 12.0045C13.5916 12.2148 13.5921 12.4741 13.471 12.6848L12.4541 14.4407C12.3325 14.6513 12.1074 14.7807 11.8643 14.7797Z" fill="#FB7B76"/>
</g>
<defs>
<clipPath id="clip0_134_3605">
<rect width="40" height="40" fill="white"/>
</clipPath>
</defs>
</svg>
