<svg width="40" height="40" viewBox="0 0 40 40" fill="none" xmlns="http://www.w3.org/2000/svg">
<g clip-path="url(#clip0_134_3518)">
<path d="M13.1526 7.45753C12.8068 6.00668 12.7526 3.71516 13.9865 2.14905C15.8441 -0.196708 20.0136 -9.81144e-05 20.0136 -9.81144e-05C20.0136 -9.81144e-05 21.8645 6.44736 17.0916 7.78295L13.1526 7.45753Z" fill="#26B99A"/>
<path d="M13.6745 8.81357C13.4034 8.92205 15.6474 5.139 18.7593 4.90849C19.1872 4.87962 19.617 4.9162 20.0339 5.01696C22.461 5.56612 24.4067 7.9051 24.4067 7.9051C24.4067 7.9051 22.2237 11.4576 19.2406 11.6678C18.6698 11.7014 18.0977 11.6301 17.5525 11.4576L13.6745 8.81357Z" fill="#14A085"/>
<path d="M28.3595 18.7524C27.2036 17.7705 25.7933 17.1358 24.2917 16.9219C24.2917 16.9219 23.0511 20.1354 24.407 22.3727C25.7629 24.61 29.1528 25.0846 29.1528 25.0846L28.3595 18.7524Z" fill="#14A085"/>
<path d="M19.3218 28.522C20.1625 28.6847 22.7117 29.3084 23.7896 31.1728C25.1456 33.4237 23.8778 36.6372 23.8778 36.6372C23.8778 36.6372 20.4879 36.1965 19.132 33.9254C17.9862 31.9932 18.7456 29.3491 18.9829 28.644" fill="#26B99A"/>
<path d="M33.0983 21.3015C32.3526 23.8168 29.1526 25.0846 29.1526 25.0846C29.1526 25.0846 27.1187 22.2778 27.8916 19.7625C28.6644 17.2473 31.8644 15.9795 31.8644 15.9795C31.8644 15.9795 33.8373 18.7863 33.0983 21.3015Z" fill="#14A085"/>
<path d="M10.5087 26.6506C10.5087 26.6506 11.8985 29.8032 10.6646 32.115C9.43072 34.4269 6.03411 35.0235 6.03411 35.0235C5.45133 33.6325 5.26365 32.1076 5.49173 30.6167L10.5087 26.6506Z" fill="#14A085"/>
<path d="M5.22714 25.2406C7.76274 24.5627 10.5085 26.6508 10.5085 26.6508C10.5085 26.6508 9.14579 29.8305 6.61019 30.5084C4.0746 31.1864 1.35596 29.0779 1.35596 29.0779C1.35596 29.0779 2.71189 25.9118 5.22714 25.2406Z" fill="#26B99A"/>
<path d="M29.1527 24.4068C28.4748 24.4068 27.8917 24.3661 27.3222 24.3187C24.9062 24.0724 22.4654 24.3334 20.1561 25.0848C16.2307 26.2034 15.5595 24.8407 15.5595 24.8407C15.482 24.6106 15.2876 24.4393 15.0496 24.3914C14.8116 24.3435 14.566 24.4262 14.4055 24.6083C14.245 24.7905 14.1939 25.0445 14.2714 25.2746C14.3392 25.478 14.9019 26.8814 17.4714 26.8814C18.5065 26.86 19.5334 26.6934 20.5222 26.3865C21.4239 26.1288 22.19 25.9526 22.868 25.8237C22.251 26.1356 21.6883 26.461 21.1392 26.7729C19.5934 27.7017 18.251 28.4746 16.2714 28.4746C14.4581 28.5401 12.6953 27.8702 11.3832 26.617C10.119 25.2958 9.43761 23.5227 9.4917 21.6949C9.4917 21.1797 9.4917 20.4746 9.4917 19.661V18.4746C9.4917 18.1002 9.18817 17.7966 8.81374 17.7966C8.43931 17.7966 8.13577 18.1002 8.13577 18.4746V19.661V21.6949C8.07238 23.8793 8.88529 25.9982 10.3934 27.5797C11.9646 29.0989 14.0873 29.9117 16.2714 29.8305C18.6171 29.8305 20.1697 28.9288 21.8171 27.9729C23.729 26.8882 25.6409 25.7627 29.1527 25.7627C35.7154 25.7627 37.8442 31.1254 38.4409 35.8712C37.2864 34.0804 35.421 32.8689 33.3154 32.5424C33.0732 32.5085 32.8313 32.6064 32.6808 32.7992C32.5304 32.992 32.4942 33.2504 32.5859 33.4771C32.6777 33.7039 32.8834 33.8644 33.1256 33.8983C37.3493 34.5017 38.651 39.4441 38.6646 39.4915C38.742 39.7913 39.0126 40.0006 39.3222 40H39.4036C39.7459 39.9586 40.0027 39.6669 40.0002 39.3221C40.0002 29.8305 36.0476 24.4068 29.1527 24.4068Z" fill="#71C285"/>
<path d="M17.6271 10.8473C17.6271 9.67437 16.5085 8.67776 14.9492 8.2981C15.7831 6.94217 15.8712 5.44386 15.0441 4.61674C14.2169 3.78962 12.7593 3.87776 11.3898 4.74556C11.0102 3.15234 10.0136 2.03369 8.81356 2.03369C7.61356 2.03369 6.64407 3.15234 6.27119 4.74556C4.91525 3.91166 3.41017 3.82352 2.58305 4.65064C1.75593 5.47776 1.87119 6.92861 2.71186 8.2981C1.14576 8.67776 0 9.67437 0 10.8473C0 12.0201 1.11864 13.0167 2.71186 13.3964C1.87797 14.7523 1.78983 16.2506 2.61695 17.0778C3.44407 17.9049 4.92881 17.8167 6.30509 16.9828C6.67797 18.5422 7.66102 19.6608 8.84746 19.6608C10.0339 19.6608 11.0169 18.5422 11.3966 16.9828C12.7525 17.8167 14.2508 17.9049 15.078 17.0778C15.9051 16.2506 15.8169 14.7659 14.9831 13.3964C16.5356 13.0167 17.6271 12.0201 17.6271 10.8473Z" fill="#ECF0F1"/>
<path d="M8.81371 9.49139C8.43928 9.49139 8.13574 9.18786 8.13574 8.81343V6.77953C8.13574 6.4051 8.43928 6.10156 8.81371 6.10156C9.18814 6.10156 9.49167 6.4051 9.49167 6.77953V8.81343C9.49167 9.18786 9.18814 9.49139 8.81371 9.49139Z" fill="#F0C419"/>
<path d="M6.77974 11.5254H4.74584C4.37141 11.5254 4.06787 11.2218 4.06787 10.8474C4.06787 10.473 4.37141 10.1694 4.74584 10.1694H6.77974C7.15417 10.1694 7.4577 10.473 7.4577 10.8474C7.4577 11.2218 7.15417 11.5254 6.77974 11.5254Z" fill="#F0C419"/>
<path d="M8.81371 15.5932C8.43928 15.5932 8.13574 15.2897 8.13574 14.9152V12.8813C8.13574 12.5069 8.43928 12.2034 8.81371 12.2034C9.18814 12.2034 9.49167 12.5069 9.49167 12.8813V14.9152C9.49167 15.2897 9.18814 15.5932 8.81371 15.5932Z" fill="#F0C419"/>
<path d="M12.8813 11.5254H10.8474C10.473 11.5254 10.1694 11.2218 10.1694 10.8474C10.1694 10.473 10.473 10.1694 10.8474 10.1694H12.8813C13.2557 10.1694 13.5593 10.473 13.5593 10.8474C13.5593 11.2218 13.2557 11.5254 12.8813 11.5254Z" fill="#F0C419"/>
<path d="M7.40357 10.0879C7.22337 10.0889 7.05016 10.0182 6.92222 9.89128L5.64764 8.6167C5.47567 8.44473 5.40851 8.19407 5.47145 7.95916C5.5344 7.72424 5.71789 7.54075 5.95281 7.4778C6.18773 7.41485 6.43838 7.48202 6.61035 7.65399L7.88493 8.92857C8.01328 9.05587 8.08547 9.22915 8.08547 9.40992C8.08547 9.59069 8.01328 9.76398 7.88493 9.89128C7.75699 10.0182 7.58378 10.0889 7.40357 10.0879Z" fill="#F0C419"/>
<path d="M6.10182 14.2371C5.92161 14.2381 5.74841 14.1674 5.62046 14.0404C5.49212 13.9131 5.41992 13.7399 5.41992 13.5591C5.41992 13.3783 5.49212 13.205 5.62046 13.0777L6.89504 11.8032C7.06701 11.6312 7.31767 11.564 7.55258 11.627C7.7875 11.6899 7.97099 11.8734 8.03394 12.1083C8.09689 12.3432 8.02972 12.5939 7.85775 12.7659L6.58318 14.0404C6.45523 14.1674 6.28202 14.2381 6.10182 14.2371Z" fill="#F0C419"/>
<path d="M11.5256 14.2371C11.3454 14.2381 11.1722 14.1674 11.0443 14.0404L9.76971 12.7659C9.59774 12.5939 9.53058 12.3432 9.59352 12.1083C9.65647 11.8734 9.83996 11.6899 10.0749 11.627C10.3098 11.564 10.5605 11.6312 10.7324 11.8032L12.007 13.0777C12.1353 13.205 12.2075 13.3783 12.2075 13.5591C12.2075 13.7399 12.1353 13.9131 12.007 14.0404C11.8791 14.1674 11.7059 14.2381 11.5256 14.2371Z" fill="#F0C419"/>
<path d="M10.2781 10.0881C10.0979 10.0892 9.92468 10.0184 9.79673 9.89151C9.66839 9.76421 9.59619 9.59092 9.59619 9.41015C9.59619 9.22938 9.66839 9.05609 9.79673 8.92879L11.0713 7.65422C11.3372 7.38837 11.7682 7.38837 12.034 7.65422C12.2999 7.92006 12.2999 8.35108 12.034 8.61693L10.7594 9.89151C10.6315 10.0184 10.4583 10.0892 10.2781 10.0881Z" fill="#F0C419"/>
<path d="M8.84054 12.8813C9.96383 12.8813 10.8744 11.9707 10.8744 10.8474C10.8744 9.72408 9.96383 8.81348 8.84054 8.81348C7.71725 8.81348 6.80664 9.72408 6.80664 10.8474C6.80664 11.9707 7.71725 12.8813 8.84054 12.8813Z" fill="#F3D55B"/>
</g>
<defs>
<clipPath id="clip0_134_3518">
<rect width="40" height="40" fill="white"/>
</clipPath>
</defs>
</svg>
