<svg width="40" height="40" viewBox="0 0 40 40" fill="none" xmlns="http://www.w3.org/2000/svg">
<g clip-path="url(#clip0_134_3566)">
<path d="M29.0866 10.0267C29.98 9.31333 31.7133 8.08666 33.5866 8.22C36.52 8.42666 38.6666 11.92 38.6666 11.92C38.6666 11.92 36.7533 14.22 34.3666 14.76C33.9567 14.8591 33.5341 14.895 33.1133 14.8667C30.76 14.6933 28.9133 12.4533 28.3066 11.48L29.0866 10.0267Z" fill="#14A085"/>
<path d="M29.3333 11.6665C36.6666 12.9998 34.3466 19.6665 34.3466 19.6665C34.3466 19.6665 30.2466 19.8598 28.4199 17.5465C27.8656 16.8037 27.5266 15.9226 27.4399 14.9998L29.3333 11.6665Z" fill="#26B99A"/>
<path d="M20.8601 22.7065C22.9068 23.7732 23.3334 26.9999 23.3334 26.9999C23.3334 26.9999 20.4401 28.4999 18.4001 27.4332C16.3601 26.3665 15.9268 23.1399 15.9268 23.1399C15.9268 23.1399 18.8201 21.6665 20.8601 22.7065Z" fill="#26B99A"/>
<path d="M17.4199 36.1865C16.5265 38.3332 13.3332 38.9999 13.3332 38.9999C13.3332 38.9999 11.5932 36.2465 12.4865 34.1132C13.3799 31.9799 16.5599 31.2932 16.5599 31.2932C16.5599 31.2932 18.3065 34.0599 17.4199 36.1865Z" fill="#26B99A"/>
<path d="M26.9532 35.9933C24.7399 36.6599 22.1865 34.6599 22.1865 34.6599C22.1865 34.6599 23.2132 31.5733 25.4265 30.9133C27.6399 30.2533 30.1932 32.2466 30.1932 32.2466C30.1932 32.2466 29.1599 35.3333 26.9532 35.9933Z" fill="#14A085"/>
<path d="M39.3333 31C38.9651 31 38.6667 31.2985 38.6667 31.6667C38.6667 38.3333 33.3333 38.3333 31.3333 38.3333H19.7733C23.3333 36.22 24 31.9133 24 27.6667V26.9333C24 25.2467 25.14 22.3333 27.3333 22.3333C29.72 22.3333 30 23.4733 30 24.3333C30.0679 24.8818 29.8791 25.4309 29.4883 25.8217C29.0976 26.2124 28.5484 26.4012 28 26.3333C27.6318 26.3333 27.3333 26.6318 27.3333 27C27.3333 27.3682 27.6318 27.6667 28 27.6667C29.6133 27.6667 31.3333 26.7933 31.3333 24.3333C31.3333 23.0867 30.8133 21 27.3333 21C25.9742 21.0414 24.7247 21.7561 24 22.9067V17.6667C24 17.2985 23.7015 17 23.3333 17C22.9651 17 22.6667 17.2985 22.6667 17.6667V24.48V26.94V27.6667C22.6133 34.0733 21.12 38.3333 14 38.3333H8.66667C9.51535 37.7117 10.0119 36.7186 10 35.6667C10 32.1867 7.91333 31.6667 6.66667 31.6667C4.48 31.6667 3.33333 33.6667 3.33333 35.6667C3.33333 36.0349 3.63181 36.3333 4 36.3333C4.36819 36.3333 4.66667 36.0349 4.66667 35.6667C4.66667 34.7467 5.08667 33 6.66667 33C7.52667 33 8.66667 33.2733 8.66667 35.6667C8.66667 38.26 4.48 38.3333 4 38.3333H0.666667C0.298477 38.3333 0 38.6318 0 39C0 39.3682 0.298477 39.6667 0.666667 39.6667H31.3333C37.0867 39.6667 40 37 40 31.6667C40 31.2985 39.7015 31 39.3333 31Z" fill="#33907C"/>
<path d="M29.3932 6.49325C30.2132 5.15992 30.2998 3.68659 29.4865 2.87325C28.6732 2.05992 27.2132 2.14659 25.8665 2.99992C25.4932 1.43325 24.5132 0.333252 23.3332 0.333252C22.1532 0.333252 21.1998 1.43325 20.8332 2.99992C19.4998 2.17992 18.0198 2.09325 17.2065 2.90659C16.3932 3.71992 16.4798 5.17992 17.2998 6.52659C15.7665 6.89992 14.6665 7.85992 14.6665 9.03325C14.6665 10.2066 15.7665 11.1666 17.2998 11.5399C16.4798 12.8733 16.3932 14.3466 17.2065 15.1599C18.0198 15.9733 19.4798 15.8866 20.8332 15.0666C21.1998 16.5999 22.1665 17.6999 23.3332 17.6999C24.4998 17.6999 25.4665 16.5999 25.8398 15.0666C27.1732 15.8866 28.6465 15.9733 29.4598 15.1599C30.2732 14.3466 30.1865 12.8866 29.3665 11.5399C30.8998 11.1666 31.9998 10.2066 31.9998 9.03325C31.9998 7.85992 30.9265 6.86659 29.3932 6.49325Z" fill="#F9EAB0"/>
<path d="M23.3332 13.6666C22.965 13.6666 22.6665 13.3681 22.6665 12.9999V10.9999C22.6665 10.6317 22.965 10.3333 23.3332 10.3333C23.7014 10.3333 23.9998 10.6317 23.9998 10.9999V12.9999C23.9998 13.3681 23.7014 13.6666 23.3332 13.6666Z" fill="#F3D55B"/>
<path d="M21.3332 9.66659H19.3332C18.965 9.66659 18.6665 9.36811 18.6665 8.99992C18.6665 8.63173 18.965 8.33325 19.3332 8.33325H21.3332C21.7014 8.33325 21.9998 8.63173 21.9998 8.99992C21.9998 9.36811 21.7014 9.66659 21.3332 9.66659Z" fill="#F3D55B"/>
<path d="M23.3332 7.66659C22.965 7.66659 22.6665 7.36811 22.6665 6.99992V4.99992C22.6665 4.63173 22.965 4.33325 23.3332 4.33325C23.7014 4.33325 23.9998 4.63173 23.9998 4.99992V6.99992C23.9998 7.36811 23.7014 7.66659 23.3332 7.66659Z" fill="#F3D55B"/>
<path d="M27.3332 9.66659H25.3332C24.965 9.66659 24.6665 9.36811 24.6665 8.99992C24.6665 8.63173 24.965 8.33325 25.3332 8.33325H27.3332C27.7014 8.33325 27.9998 8.63173 27.9998 8.99992C27.9998 9.36811 27.7014 9.66659 27.3332 9.66659Z" fill="#F3D55B"/>
<path d="M20.6666 12.3333C20.4894 12.3343 20.3191 12.2648 20.1933 12.14C20.0671 12.0148 19.9961 11.8444 19.9961 11.6666C19.9961 11.4889 20.0671 11.3185 20.1933 11.1933L21.4466 9.93997C21.6157 9.77087 21.8622 9.70482 22.0932 9.76672C22.3242 9.82862 22.5046 10.0091 22.5665 10.2401C22.6284 10.4711 22.5624 10.7175 22.3933 10.8866L21.14 12.14C21.0141 12.2648 20.8438 12.3343 20.6666 12.3333Z" fill="#F3D55B"/>
<path d="M21.9467 8.25323C21.7695 8.25425 21.5991 8.18469 21.4733 8.0599L20.22 6.80656C20.0509 6.63746 19.9849 6.39098 20.0468 6.15998C20.1086 5.92897 20.2891 5.74854 20.5201 5.68664C20.7511 5.62475 20.9976 5.69079 21.1667 5.85989L22.42 7.11323C22.5462 7.23841 22.6172 7.4088 22.6172 7.58656C22.6172 7.76432 22.5462 7.93472 22.42 8.0599C22.2942 8.18469 22.1239 8.25425 21.9467 8.25323Z" fill="#F3D55B"/>
<path d="M24.7731 8.25321C24.5959 8.25424 24.4256 8.18467 24.2997 8.05988C24.1735 7.9347 24.1025 7.7643 24.1025 7.58655C24.1025 7.40879 24.1735 7.23839 24.2997 7.11321L25.5531 5.85988C25.8145 5.59846 26.2383 5.59846 26.4997 5.85988C26.7612 6.12129 26.7612 6.54513 26.4997 6.80655L25.2464 8.05988C25.1206 8.18467 24.9503 8.25424 24.7731 8.25321Z" fill="#F3D55B"/>
<path d="M25.9999 12.3333C25.8227 12.3343 25.6524 12.2647 25.5265 12.14L24.2732 10.8866C24.0118 10.6252 24.0118 10.2014 24.2732 9.93996C24.5346 9.67854 24.9585 9.67854 25.2199 9.93996L26.4732 11.1933C26.5994 11.3185 26.6704 11.4889 26.6704 11.6666C26.6704 11.8444 26.5994 12.0148 26.4732 12.14C26.3474 12.2647 26.1771 12.3343 25.9999 12.3333Z" fill="#F3D55B"/>
<path d="M23.3599 11C24.4644 11 25.3599 10.1046 25.3599 9C25.3599 7.89543 24.4644 7 23.3599 7C22.2553 7 21.3599 7.89543 21.3599 9C21.3599 10.1046 22.2553 11 23.3599 11Z" fill="#F0C419"/>
</g>
<defs>
<clipPath id="clip0_134_3566">
<rect width="40" height="40" fill="white"/>
</clipPath>
</defs>
</svg>
