<svg width="40" height="40" viewBox="0 0 40 40" fill="none" xmlns="http://www.w3.org/2000/svg">
<g clip-path="url(#clip0_134_3540)">
<path d="M12.6664 13.5866C12.2982 13.5866 11.9997 13.2881 11.9997 12.9199V6.6666C11.9997 3.4666 11.5464 1.33326 9.33303 1.33326C8.78942 1.30131 8.25446 1.48043 7.83969 1.83326C7.56417 2.09303 7.40749 2.4546 7.40636 2.83326C7.39682 3.16221 7.52989 3.47922 7.77136 3.7028C8.01282 3.92638 8.33912 4.03471 8.66636 3.99993C9.03455 3.99993 9.33303 4.29841 9.33303 4.6666C9.33303 5.03479 9.03455 5.33326 8.66636 5.33326C7.98467 5.36839 7.3189 5.11947 6.82747 4.64573C6.33605 4.17198 6.0629 3.51578 6.07303 2.83326C6.07554 2.09168 6.38148 1.38344 6.91969 0.873264C7.57533 0.271718 8.44426 -0.0427289 9.33303 -6.91209e-05C13.333 -6.91209e-05 13.333 4.6666 13.333 6.6666V12.9199C13.333 13.2881 13.0345 13.5866 12.6664 13.5866Z" fill="#F0C419"/>
<path d="M27.3332 13.5867C26.965 13.5867 26.6665 13.2882 26.6665 12.92V6.66665C26.6665 4.66665 26.6665 -1.35885e-05 30.6665 -1.35885e-05C31.5569 -0.0400249 32.4269 0.273948 33.0865 0.87332C33.6203 1.38598 33.9234 2.09321 33.9265 2.83332C33.9366 3.51584 33.6635 4.17204 33.1721 4.64578C32.6806 5.11952 32.0149 5.36845 31.3332 5.33332C30.965 5.33332 30.6665 5.03484 30.6665 4.66665C30.6665 4.29846 30.965 3.99999 31.3332 3.99999C31.6604 4.03476 31.9867 3.92644 32.2282 3.70286C32.4696 3.47928 32.6027 3.16226 32.5932 2.83332C32.592 2.45465 32.4354 2.09308 32.1598 1.83332C31.7451 1.48048 31.2101 1.30137 30.6665 1.33332C28.4532 1.33332 27.9998 3.46665 27.9998 6.66665V12.92C27.9998 13.2882 27.7014 13.5867 27.3332 13.5867Z" fill="#F0C419"/>
<path d="M30.2063 24.9065C32.2135 25.365 33.8751 26.7657 34.6663 28.6665C33.7265 28.2926 32.6529 28.561 31.9997 29.3332C31.0263 30.3065 29.333 30.5665 27.9997 30.3798H11.9997C10.6663 30.5665 8.95967 30.3065 7.99967 29.3332C7.34641 28.561 6.2728 28.2926 5.33301 28.6665C6.12426 26.7657 7.78583 25.365 9.79301 24.9065H30.2063Z" fill="#14A085"/>
<path d="M25.6199 26.3467C27.0884 26.9599 28.0324 28.4089 27.9999 30V30.38C27.7932 33.3333 25.3332 33.3333 25.3332 33.3333C25.3332 31.7733 23.7066 31.02 22.9932 30.7667H16.9932C16.2932 31.02 14.6666 31.7733 14.6666 33.3333C14.6666 33.3333 12.2066 33.3333 11.9999 30.38C11.9999 30.26 11.9999 30.1333 11.9999 30C11.9761 28.3312 13.0114 26.8303 14.5799 26.26L25.6199 26.3467Z" fill="#81CCB8"/>
<path d="M35.4198 20.9533C36.3162 20.1763 36.9786 19.1653 37.3332 18.0333C36.0803 17.7173 34.7574 17.8348 33.5798 18.3667H6.41984C5.24228 17.8348 3.91935 17.7173 2.6665 18.0333C3.02105 19.1653 3.68352 20.1763 4.57984 20.9533H35.4198Z" fill="#14A085"/>
<path d="M33.0532 20.22C33.3485 19.6427 33.5275 19.013 33.5798 18.3667C33.7332 16.7533 33.3332 14.9933 33.3332 13.5C33.3332 10.7533 37.3332 8.16667 37.3332 8.16667C37.3332 8.16667 32.6665 7.5 29.9998 8.83333C29.0042 9.34427 28.1025 10.0205 27.3332 10.8333C27.2943 10.8678 27.2586 10.9057 27.2265 10.9467H12.7732C12.7411 10.9057 12.7054 10.8678 12.6665 10.8333C11.8972 10.0205 10.9955 9.34427 9.99984 8.83333C7.33317 7.5 2.6665 8.16667 2.6665 8.16667C2.6665 8.16667 6.6665 10.7533 6.6665 13.5C6.6665 14.9933 6.2665 16.7533 6.41984 18.3667C6.47222 19.013 6.65117 19.6427 6.9465 20.22H33.0532Z" fill="#FB7B76"/>
<path d="M26.3199 15.4532C27.0892 14.0767 27.4064 12.4931 27.2265 10.9265C26.8207 8.40218 25.4179 6.14667 23.3332 4.6665C21.3332 3.33317 19.9999 1.99984 19.9999 0.666504C19.9999 1.99984 18.6665 3.33317 16.6665 4.6665C14.5818 6.14667 13.179 8.40218 12.7732 10.9265C12.5933 12.4931 12.9105 14.0767 13.6799 15.4532H26.3199Z" fill="#FF5364"/>
<path d="M22.0864 25.3999C22.9336 26.5329 23.3729 27.9191 23.3331 29.3333C23.3441 29.8322 23.227 30.3257 22.9931 30.7666C22.2531 32.0999 20.5264 32.4466 20.0064 33.9999C19.4864 32.4466 17.7597 32.0999 17.0197 30.7666C16.7811 30.327 16.6595 29.8334 16.6664 29.3333C16.6286 27.9452 17.0505 26.5835 17.8664 25.4599L19.9997 23.3333L22.0864 25.3999Z" fill="#14A085"/>
<path d="M19.9997 37.3333C20.3679 37.3333 20.6663 37.0349 20.6663 36.6667C20.6663 36.2985 20.3679 36 19.9997 36C19.6315 36 19.333 36.2985 19.333 36.6667C19.333 37.0349 19.6315 37.3333 19.9997 37.3333Z" fill="#26B99A"/>
<path d="M19.9997 5.99984C20.3679 5.99984 20.6663 5.70136 20.6663 5.33317C20.6663 4.96498 20.3679 4.6665 19.9997 4.6665C19.6315 4.6665 19.333 4.96498 19.333 5.33317C19.333 5.70136 19.6315 5.99984 19.9997 5.99984Z" fill="#FB7B76"/>
<path d="M17.9997 7.33309C18.3679 7.33309 18.6663 7.03461 18.6663 6.66642C18.6663 6.29823 18.3679 5.99976 17.9997 5.99976C17.6315 5.99976 17.333 6.29823 17.333 6.66642C17.333 7.03461 17.6315 7.33309 17.9997 7.33309Z" fill="#FB7B76"/>
<path d="M21.9997 7.33309C22.3679 7.33309 22.6663 7.03461 22.6663 6.66642C22.6663 6.29823 22.3679 5.99976 21.9997 5.99976C21.6315 5.99976 21.333 6.29823 21.333 6.66642C21.333 7.03461 21.6315 7.33309 21.9997 7.33309Z" fill="#FB7B76"/>
<path d="M19.9997 39.9998C20.3679 39.9998 20.6663 39.7014 20.6663 39.3332C20.6663 38.965 20.3679 38.6665 19.9997 38.6665C19.6315 38.6665 19.333 38.965 19.333 39.3332C19.333 39.7014 19.6315 39.9998 19.9997 39.9998Z" fill="#26B99A"/>
<path d="M22.6664 15.3332C22.7008 16.1809 22.5172 17.0233 22.1331 17.7798C21.59 17.5322 21.008 17.3811 20.4131 17.3332C20.2797 17.3332 20.1397 17.3332 19.9997 17.3332C19.8597 17.3332 19.7197 17.3332 19.5864 17.3332C19.5713 16.4854 19.342 15.6552 18.9197 14.9198C18.6248 14.3803 18.2234 13.9062 17.7397 13.5265C18.263 12.412 19.0364 11.4332 19.9997 10.6665C20.9728 11.4367 21.7534 12.4227 22.2797 13.5465C22.5284 14.1097 22.66 14.7176 22.6664 15.3332Z" fill="#ECF0F1"/>
<path d="M19.5865 17.3332C18.9928 17.3748 18.4108 17.5191 17.8665 17.7599C17.5796 17.8822 17.305 18.0318 17.0465 18.2065C16.3935 16.9095 15.1499 16.0116 13.7132 15.7999C13.7132 15.6799 13.7132 15.5532 13.7132 15.4332C13.6911 14.5268 13.8311 13.6237 14.1265 12.7665C14.1981 12.5387 14.2849 12.316 14.3865 12.0999C15.5956 12.326 16.7363 12.8279 17.7199 13.5665C18.2035 13.9463 18.605 14.4203 18.8999 14.9599C19.3226 15.6815 19.5587 16.4973 19.5865 17.3332Z" fill="#BDC3C7"/>
<path d="M17.0467 18.2266C15.8551 19.0244 15.0318 20.2653 14.76 21.6733C13.7865 21.0292 12.7242 20.5306 11.6067 20.1933C10.697 19.0426 10.139 17.6536 10 16.1933C11.1927 15.7954 12.4603 15.6746 13.7067 15.84C15.1417 16.0454 16.3874 16.9355 17.0467 18.2266Z" fill="#ECF0F1"/>
<path d="M26.32 15.4532V15.8398C26.2639 16.4041 26.0986 16.952 25.8333 17.4532C25.4505 18.2099 24.8816 18.8568 24.18 19.3332C23.8345 18.8921 23.4203 18.5094 22.9533 18.1998C22.6949 18.0251 22.4203 17.8755 22.1333 17.7532C22.513 17.0046 22.6965 16.172 22.6666 15.3332C22.6602 14.7176 22.5287 14.1097 22.28 13.5465C23.2635 12.8079 24.4042 12.306 25.6133 12.0798C25.7149 12.2959 25.8018 12.5187 25.8733 12.7465C26.1848 13.6142 26.3362 14.5313 26.32 15.4532Z" fill="#BDC3C7"/>
<path d="M25.2398 21.6733C23.6936 22.7283 21.8714 23.3056 19.9998 23.3333C18.1281 23.3056 16.3059 22.7283 14.7598 21.6733C15.0315 20.2653 15.8548 19.0243 17.0464 18.2266C17.3049 18.0519 17.5795 17.9023 17.8664 17.7799C18.4095 17.5323 18.9915 17.3812 19.5864 17.3333H19.9998H20.4131C21.0068 17.3748 21.5888 17.5192 22.1331 17.7599C22.4201 17.8823 22.6947 18.0319 22.9531 18.2066C24.1447 19.0043 24.968 20.2453 25.2398 21.6533V21.6733Z" fill="#F0C419"/>
<path d="M29.9997 16.1732C29.8607 17.6335 29.3027 19.0225 28.393 20.1732C27.2755 20.5106 26.2132 21.0091 25.2397 21.6532C25.0834 20.8042 24.7192 20.0071 24.1797 19.3332C24.875 18.8461 25.4348 18.1899 25.8064 17.4266C26.0716 16.9254 26.2369 16.3775 26.293 15.8132C27.5395 15.6298 28.8118 15.7533 29.9997 16.1732Z" fill="#ECF0F1"/>
<path d="M19.9998 24.1933C19.8598 25.3733 19.0665 27.3333 15.3332 27.3333C9.99984 27.3333 9.99984 23.3333 6.6665 23.3333C4.59598 23.3595 2.55321 23.8134 0.666504 24.6667C3.33317 20.6667 5.99984 20 9.99984 20C10.5413 19.999 11.0808 20.0639 11.6065 20.1933C12.724 20.5307 13.7863 21.0293 14.7598 21.6733C16.306 22.7284 18.1282 23.3057 19.9998 23.3333C19.9627 23.6188 19.9627 23.9079 19.9998 24.1933Z" fill="#26B99A"/>
<path d="M39.3333 24.6667C37.4466 23.8134 35.4039 23.3595 33.3333 23.3333C30 23.3333 30 27.3333 24.6667 27.3333C20.9333 27.3333 20.14 25.3733 20 24.1933C20.0371 23.9079 20.0371 23.6188 20 23.3333C21.8716 23.3057 23.6938 22.7284 25.24 21.6733C26.2135 21.0293 27.2758 20.5307 28.3933 20.1933C28.9191 20.0639 29.4586 19.999 30 20C34 20 36.6667 20.6667 39.3333 24.6667Z" fill="#26B99A"/>
<path d="M19.9997 20.6666C20.3679 20.6666 20.6663 20.3681 20.6663 19.9999C20.6663 19.6317 20.3679 19.3333 19.9997 19.3333C19.6315 19.3333 19.333 19.6317 19.333 19.9999C19.333 20.3681 19.6315 20.6666 19.9997 20.6666Z" fill="#F3D55B"/>
</g>
<defs>
<clipPath id="clip0_134_3540">
<rect width="40" height="40" fill="white"/>
</clipPath>
</defs>
</svg>
