<svg width="40" height="40" viewBox="0 0 40 40" fill="none" xmlns="http://www.w3.org/2000/svg">
<g clip-path="url(#clip0_134_3655)">
<path d="M23.4665 19.4067C23.4265 19.1733 23.3865 18.9267 23.3332 18.6667C22.9485 16.7026 21.733 15.0009 19.9999 14C18.2667 15.0009 17.0513 16.7026 16.6665 18.6667C16.6132 18.9267 16.5732 19.1733 16.5332 19.4067L16.6665 26H23.3932L23.4665 19.4067Z" fill="#894B9D"/>
<path d="M26.6667 10H13.3333C8.96 10 6.66667 6.98 6.66667 4C6.66667 2.52724 5.47276 1.33333 4 1.33333C2.52724 1.33333 1.33333 2.52724 1.33333 4C1.33333 5.47276 2.52724 6.66667 4 6.66667C4.36819 6.66667 4.66667 6.96514 4.66667 7.33333C4.66667 7.70152 4.36819 8 4 8C1.79086 8 0 6.20914 0 4C0 1.79086 1.79086 0 4 0C6.20914 0 8 1.79086 8 4C8 6.24667 9.66667 8.66667 13.3333 8.66667H26.6667C30.3333 8.66667 32 6.24667 32 4C32 1.79086 33.7909 0 36 0C38.2091 0 40 1.79086 40 4C40 6.20914 38.2091 8 36 8C35.6318 8 35.3333 7.70152 35.3333 7.33333C35.3333 6.96514 35.6318 6.66667 36 6.66667C37.4728 6.66667 38.6667 5.47276 38.6667 4C38.6667 2.52724 37.4728 1.33333 36 1.33333C34.5272 1.33333 33.3333 2.52724 33.3333 4C33.3333 6.98 31.04 10 26.6667 10Z" fill="#14A085"/>
<path d="M36 40C33.7909 40 32 38.2091 32 36C32 33.7533 30.3333 31.3333 26.6667 31.3333H13.3333C9.66667 31.3333 8 33.7533 8 36C8 38.2091 6.20914 40 4 40C1.79086 40 0 38.2091 0 36C0 33.7909 1.79086 32 4 32C4.36819 32 4.66667 32.2985 4.66667 32.6667C4.66667 33.0349 4.36819 33.3333 4 33.3333C2.52724 33.3333 1.33333 34.5272 1.33333 36C1.33333 37.4728 2.52724 38.6667 4 38.6667C5.47276 38.6667 6.66667 37.4728 6.66667 36C6.66667 33.02 8.96 30 13.3333 30H26.6667C31.04 30 33.3333 33.02 33.3333 36C33.3333 37.4728 34.5272 38.6667 36 38.6667C37.4728 38.6667 38.6667 37.4728 38.6667 36C38.6667 34.5272 37.4728 33.3333 36 33.3333C35.6318 33.3333 35.3333 33.0349 35.3333 32.6667C35.3333 32.2985 35.6318 32 36 32C38.2091 32 40 33.7909 40 36C40 38.2091 38.2091 40 36 40Z" fill="#14A085"/>
<path d="M18.0002 9.24662C16.8157 9.16693 15.6908 8.6982 14.8002 7.91329C12.9668 6.09995 13.3602 2.73995 13.3602 2.73995C13.3602 2.73995 16.6935 2.31329 18.5535 4.11995C19.3601 5.0091 19.8541 6.13748 19.9602 7.33329L18.0002 9.24662Z" fill="#FB7B76"/>
<path d="M20.0801 7.33332C20.1742 6.1259 20.6667 4.98392 21.4801 4.08665C23.3334 2.28665 26.6667 2.71332 26.6667 2.71332C26.6667 2.71332 27.0534 6.04665 25.2201 7.88665C24.3265 8.68428 23.1946 9.16469 22.0001 9.25332L20.0801 7.33332Z" fill="#FF5364"/>
<path d="M8.26006 10.3266C7.17339 10.5133 6.06006 9.35325 6.06006 9.35325C6.06006 9.35325 6.72673 7.88659 7.80006 7.69325C8.87339 7.49992 10.0001 8.66659 10.0001 8.66659C10.0001 8.66659 9.33339 10.1333 8.26006 10.3266Z" fill="#7ED09E"/>
<path d="M31.8001 10.3267C32.8867 10.5134 34.0001 9.3334 34.0001 9.3334C34.0001 9.3334 33.3334 7.86673 32.2601 7.6734C31.1867 7.48006 30.0601 8.66673 30.0601 8.66673C30.0601 8.66673 30.7134 10.1334 31.8001 10.3267Z" fill="#7ED09E"/>
<path d="M19.9598 32.6667C19.8613 33.8711 19.3694 35.0096 18.5598 35.9067C16.7265 37.7134 13.3665 37.2867 13.3665 37.2867C13.3665 37.2867 12.9732 33.9534 14.8065 32.1134C15.6971 31.3284 16.8221 30.8597 18.0065 30.78L19.9598 32.6667Z" fill="#FB7B76"/>
<path d="M22.0001 30.7466C23.1993 30.8323 24.3363 31.3129 25.2334 32.1132C27.0601 33.9266 26.6667 37.2866 26.6667 37.2866C26.6667 37.2866 23.3334 37.7133 21.4734 35.9066C20.6638 35.0102 20.1738 33.8709 20.0801 32.6666L22.0001 30.7466Z" fill="#FF5364"/>
<path d="M8.26006 29.6733C7.17339 29.4867 6.06006 30.6667 6.06006 30.6667C6.06006 30.6667 6.72673 32.1333 7.80006 32.3267C8.87339 32.52 10.0001 31.3333 10.0001 31.3333C10.0001 31.3333 9.33339 29.8667 8.26006 29.6733Z" fill="#7ED09E"/>
<path d="M31.8001 29.6733C32.8867 29.4867 34.0001 30.6667 34.0001 30.6667C34.0001 30.6667 33.3334 32.1333 32.2601 32.3267C31.1867 32.52 30.0601 31.3333 30.0601 31.3333C30.0601 31.3333 30.7134 29.8667 31.8001 29.6733Z" fill="#7ED09E"/>
<path d="M10.6665 18H11.9998C16.4181 18 19.9998 21.5817 19.9998 26H18.6665C14.2482 26 10.6665 22.4183 10.6665 18Z" fill="#B49ACA"/>
<path d="M21.3335 26H20.0002C20.0002 21.5817 23.5819 18 28.0002 18H29.3335C29.3335 22.4183 25.7518 26 21.3335 26Z" fill="#955BA5"/>
<path d="M24.6667 26.6667H15.3333C13.2533 26.6667 9.52002 26 8.70002 23.5467C8.6238 23.3204 8.67408 23.0707 8.83193 22.8915C8.98978 22.7124 9.2312 22.6311 9.46526 22.6782C9.69933 22.7253 9.89047 22.8938 9.96668 23.12C10.5 24.7334 13.54 25.3334 15.3333 25.3334H24.6667C26.46 25.3334 29.5 24.7334 30 23.12C30.0762 22.8938 30.2674 22.7253 30.5014 22.6782C30.7355 22.6311 30.9769 22.7124 31.1348 22.8915C31.2926 23.0707 31.3429 23.3204 31.2667 23.5467C30.48 26 26.7467 26.6667 24.6667 26.6667Z" fill="#26B99A"/>
<path d="M20 11.3333C21.1046 11.3333 22 10.4378 22 9.33325C22 8.22868 21.1046 7.33325 20 7.33325C18.8954 7.33325 18 8.22868 18 9.33325C18 10.4378 18.8954 11.3333 20 11.3333Z" fill="#F0C419"/>
<path d="M20 32.6665C21.1046 32.6665 22 31.7711 22 30.6665C22 29.5619 21.1046 28.6665 20 28.6665C18.8954 28.6665 18 29.5619 18 30.6665C18 31.7711 18.8954 32.6665 20 32.6665Z" fill="#F0C419"/>
</g>
<defs>
<clipPath id="clip0_134_3655">
<rect width="40" height="40" fill="white"/>
</clipPath>
</defs>
</svg>
