<svg width="40" height="40" viewBox="0 0 40 40" fill="none" xmlns="http://www.w3.org/2000/svg">
<g clip-path="url(#clip0_134_3675)">
<path d="M16.0338 39.6813L7.93213 26.583L9.08467 25.8779L9.90501 27.2135L17.1864 38.9627L16.0338 39.6813Z" fill="#4FBA6F"/>
<path d="M22.8218 38.9856L30.9322 25.9042L32.0848 26.6188L23.9743 39.7002L22.8218 38.9856Z" fill="#4FBA6F"/>
<path d="M26.1016 16.2711C23.7525 16.1907 21.5965 17.5652 20.6778 19.7287V8.1355H19.3219V19.7287C18.4033 17.5652 16.2473 16.1907 13.8982 16.2711C13.5238 16.2711 13.2202 16.5746 13.2202 16.9491C13.2202 17.3235 13.5238 17.627 13.8982 17.627C18.7592 17.627 19.3219 23.4304 19.3219 27.7965V39.3219H20.6778V27.7965C20.6778 23.4304 21.2406 17.627 26.1016 17.627C26.476 17.627 26.7795 17.3235 26.7795 16.9491C26.7795 16.5746 26.476 16.2711 26.1016 16.2711Z" fill="#4FBA6F"/>
<path d="M22.7117 6.77966C24.9583 6.77966 26.7795 8.60088 26.7795 10.8475V13.5593H24.0677C21.8211 13.5593 19.9999 11.7381 19.9999 9.49153C19.9999 11.7381 18.1787 13.5593 15.9321 13.5593H13.2202V10.8475C13.2202 8.60088 15.0414 6.77966 17.288 6.77966C15.0414 6.77966 13.2202 4.95845 13.2202 2.71186V0H15.9321C18.1787 0 19.9999 1.82121 19.9999 4.0678C19.9999 1.82121 21.8211 0 24.0677 0H26.7795V2.71186C26.7795 4.95845 24.9583 6.77966 22.7117 6.77966Z" fill="#F0C419"/>
<path d="M15.2541 26.8747L12.9423 28.2916C11.6654 29.074 9.99612 28.6733 9.21344 27.3967C9.99581 28.6735 9.59518 30.3428 8.31853 31.1255L6.00666 32.5425L4.58971 30.2306C3.80735 28.9537 4.20798 27.2844 5.48463 26.5018C4.20779 27.2841 2.53849 26.8835 1.75582 25.6069L0.338867 23.295L2.65073 21.878C3.92757 21.0957 5.59687 21.4963 6.37955 22.773C5.59718 21.4961 5.99781 19.8268 7.27446 19.0441L9.58633 17.6272L11.0033 19.9391C11.7856 21.2159 11.385 22.8852 10.1084 23.6679C11.3852 22.8855 13.0545 23.2861 13.8372 24.5628L15.2541 26.8747Z" fill="#F0C419"/>
<path d="M39.6609 23.295L38.2439 25.6069C37.4612 26.8835 35.7919 27.2841 34.5151 26.5018C35.7917 27.2844 36.1924 28.9537 35.41 30.2306L33.9931 32.5425L31.6812 31.1255C30.4045 30.3428 30.0039 28.6735 30.7863 27.3967C30.0036 28.6733 28.3343 29.074 27.0575 28.2916L24.7456 26.8747L26.1626 24.5628C26.9452 23.2861 28.6145 22.8855 29.8914 23.6679C28.6147 22.8852 28.2141 21.2159 28.9965 19.9391L30.4134 17.6272L32.7253 19.0441C34.0019 19.8268 34.4026 21.4961 33.6202 22.773C34.4029 21.4963 36.0722 21.0957 37.349 21.878L39.6609 23.295Z" fill="#F0C419"/>
<path d="M20 8.13569C20.7488 8.13569 21.3559 7.52862 21.3559 6.77976C21.3559 6.0309 20.7488 5.42383 20 5.42383C19.2511 5.42383 18.644 6.0309 18.644 6.77976C18.644 7.52862 19.2511 8.13569 20 8.13569Z" fill="#F29C1F"/>
<path d="M7.79636 26.4406C8.54522 26.4406 9.15229 25.8336 9.15229 25.0847C9.15229 24.3358 8.54522 23.7288 7.79636 23.7288C7.0475 23.7288 6.44043 24.3358 6.44043 25.0847C6.44043 25.8336 7.0475 26.4406 7.79636 26.4406Z" fill="#F29C1F"/>
<path d="M32.2031 26.4406C32.952 26.4406 33.559 25.8336 33.559 25.0847C33.559 24.3358 32.952 23.7288 32.2031 23.7288C31.4542 23.7288 30.8472 24.3358 30.8472 25.0847C30.8472 25.8336 31.4542 26.4406 32.2031 26.4406Z" fill="#F29C1F"/>
<path d="M26.1016 40H13.8982C13.5238 40 13.2202 39.6964 13.2202 39.322C13.2202 38.9476 13.5238 38.644 13.8982 38.644H26.1016C26.476 38.644 26.7795 38.9476 26.7795 39.322C26.7795 39.6964 26.476 40 26.1016 40Z" fill="#CB8252"/>
</g>
<defs>
<clipPath id="clip0_134_3675">
<rect width="40" height="40" fill="white"/>
</clipPath>
</defs>
</svg>
