<svg width="22" height="20" viewBox="0 0 22 20" fill="none" xmlns="http://www.w3.org/2000/svg">
<path d="M16.1562 0.289062C14.9624 0.289062 13.8679 0.667359 12.9032 1.41347C11.9783 2.12877 11.3625 3.03984 11 3.70233C10.6375 3.03979 10.0217 2.12877 9.09679 1.41347C8.13205 0.667359 7.03755 0.289062 5.84375 0.289062C2.5123 0.289062 0 3.01401 0 6.62755C0 10.5314 3.13427 13.2024 7.87914 17.2459C8.68489 17.9326 9.59819 18.7109 10.5475 19.541C10.6726 19.6506 10.8333 19.7109 11 19.7109C11.1667 19.7109 11.3274 19.6506 11.4525 19.5411C12.4019 18.7108 13.3152 17.9325 14.1214 17.2455C18.8657 13.2024 22 10.5314 22 6.62755C22 3.01401 19.4877 0.289062 16.1562 0.289062Z" fill="#FF4034"/>
</svg>
