<svg width="24" height="24" viewBox="0 0 24 24" fill="none" xmlns="http://www.w3.org/2000/svg">
<path d="M20.1273 4.40489C17.6347 1.91216 13.5786 1.91216 11.0856 4.40489L3.33525 12.1552C1.55482 13.9358 1.55494 16.833 3.33548 18.6135C4.22583 19.5039 5.39497 19.949 6.56458 19.9489C7.73388 19.9488 8.90364 19.5038 9.79384 18.6135L16.8981 11.5091C17.4156 10.9916 17.7007 10.3035 17.7008 9.57165C17.7008 8.83973 17.4158 8.15169 16.8982 7.63403C15.8297 6.56571 14.0913 6.56575 13.0231 7.63422L8.3772 12.28C8.02052 12.6366 8.02052 13.215 8.37712 13.5717C8.73376 13.9284 9.31208 13.9283 9.6688 13.5717L14.3147 8.92587C14.6709 8.56973 15.2502 8.56965 15.6064 8.92579C15.7789 9.09829 15.874 9.32766 15.874 9.57161C15.874 9.81555 15.779 10.0448 15.6064 10.2174L8.50216 17.3218C7.43376 18.3901 5.69548 18.3902 4.62716 17.3219C3.55884 16.2535 3.55876 14.5151 4.62697 13.4467L12.3772 5.69657C14.1579 3.91594 17.0552 3.91594 18.8356 5.69657C19.6982 6.55907 20.1733 7.7059 20.1733 8.92571C20.1733 10.1455 19.6982 11.2923 18.8356 12.1549L11.0854 19.9053C10.7288 20.262 10.7288 20.8403 11.0855 21.197C11.2639 21.3754 11.4976 21.4645 11.7313 21.4645C11.9651 21.4645 12.1988 21.3753 12.3772 21.197L20.1272 13.4466C21.3349 12.2391 21.9999 10.6336 22 8.92575C22 7.21797 21.3349 5.61243 20.1273 4.40489Z" fill="#7F7F8D"/>
</svg>
