<svg width="80" height="80" viewBox="0 0 80 80" fill="none" xmlns="http://www.w3.org/2000/svg">
<path fill-rule="evenodd" clip-rule="evenodd" d="M40.0023 6.66667C21.6068 6.66667 6.66912 21.6047 6.66912 40.0022C6.68024 45.8894 8.27988 51.6512 11.2438 56.7296L6.72555 70.2843C6.43595 71.1532 7.26311 71.9799 8.13178 71.6905L21.0961 67.3698C26.6527 71.2165 33.2312 73.3233 40.0001 73.3333C58.3967 73.3329 73.3333 58.3962 73.3333 40C73.3333 21.6034 58.3978 6.66709 40.0023 6.66667ZM54.8149 43.7037C56.8604 43.7037 58.5186 42.0455 58.5186 40C58.5186 37.9545 56.8604 36.2963 54.8149 36.2963C52.7694 36.2963 51.1112 37.9545 51.1112 40C51.1112 42.0455 52.7694 43.7037 54.8149 43.7037ZM43.7036 40C43.7036 42.0455 42.0454 43.7037 39.9999 43.7037C37.9544 43.7037 36.2962 42.0455 36.2962 40C36.2962 37.9545 37.9544 36.2963 39.9999 36.2963C42.0454 36.2963 43.7036 37.9545 43.7036 40ZM25.1851 43.7037C27.2306 43.7037 28.8888 42.0455 28.8888 40C28.8888 37.9545 27.2306 36.2963 25.1851 36.2963C23.1396 36.2963 21.4814 37.9545 21.4814 40C21.4814 42.0455 23.1396 43.7037 25.1851 43.7037Z" fill="#3CB54A"/>
</svg>
