<svg width="16" height="16" viewBox="0 0 16 16" fill="none" xmlns="http://www.w3.org/2000/svg">
<path d="M2.38507 14.2219C2.26488 14.2219 2.14738 14.1863 2.04744 14.1196C1.9475 14.0528 1.8696 13.9579 1.8236 13.8468C1.7776 13.7358 1.76557 13.6136 1.78903 13.4957C1.81248 13.3778 1.87037 13.2696 1.95537 13.1846L13.1841 1.95582C13.2981 1.84186 13.4527 1.77783 13.6138 1.77783C13.775 1.77783 13.9296 1.84186 14.0435 1.95582C14.1575 2.06979 14.2215 2.22436 14.2215 2.38553C14.2215 2.5467 14.1575 2.70127 14.0435 2.81524L2.81478 14.044C2.7584 14.1005 2.69142 14.1453 2.61768 14.1758C2.54394 14.2064 2.46489 14.222 2.38507 14.2219Z" fill="#7F7F8D"/>
<path d="M13.6138 14.2219C13.534 14.222 13.4549 14.2064 13.3812 14.1758C13.3075 14.1453 13.2405 14.1005 13.1841 14.044L1.95533 2.81524C1.84137 2.70127 1.77734 2.5467 1.77734 2.38553C1.77734 2.22436 1.84137 2.06979 1.95533 1.95582C2.0693 1.84186 2.22387 1.77783 2.38504 1.77783C2.54621 1.77783 2.70078 1.84186 2.81475 1.95582L14.0435 13.1846C14.1285 13.2696 14.1864 13.3778 14.2099 13.4957C14.2333 13.6136 14.2213 13.7358 14.1753 13.8468C14.1293 13.9579 14.0514 14.0528 13.9514 14.1196C13.8515 14.1863 13.734 14.2219 13.6138 14.2219Z" fill="#7F7F8D"/>
</svg>
