<svg width="28" height="28" viewBox="0 0 28 28" fill="none" xmlns="http://www.w3.org/2000/svg">
<path d="M15.4204 23.8736V25.6663H12.7276V23.7895C10.1501 23.514 7.73379 22.4635 5.83337 20.7923L7.96373 18.2993C9.29193 19.4959 10.9385 20.3287 12.7276 20.7086V15.2462C9.08779 14.3497 6.63221 13.118 6.63221 9.81196C6.63221 6.78685 9.08801 4.46102 12.7276 4.04166V2.33301H15.4204V4.06983C17.7301 4.29594 19.9051 5.20772 21.6342 6.67477L19.6216 9.25173C18.4275 8.23169 16.9836 7.50969 15.4204 7.15108V12.4171C19.4741 13.2854 22.1667 14.6019 22.1667 18.0192C22.1667 21.2407 19.7107 23.5935 15.4204 23.8736ZM12.7276 11.7448V7.09494C11.2779 7.43099 10.3602 8.41139 10.3602 9.50388C10.3602 10.6243 11.1297 11.2125 12.7276 11.7448ZM18.468 18.3552C18.468 17.0667 17.521 16.4785 15.4204 15.8903V20.8764C17.4324 20.6523 18.468 19.588 18.468 18.3552Z" fill="#F89408"/>
</svg>
