<svg width="28" height="28" viewBox="0 0 28 28" fill="none" xmlns="http://www.w3.org/2000/svg">
<path d="M15.4204 23.8736V25.6663H12.7275V23.7895C10.1501 23.514 7.73373 22.4635 5.83331 20.7923L7.96367 18.2993C9.29187 19.4959 10.9384 20.3287 12.7275 20.7086V15.2462C9.08773 14.3497 6.63214 13.118 6.63214 9.81196C6.63214 6.78685 9.08795 4.46102 12.7275 4.04166V2.33301H15.4204V4.06983C17.73 4.29594 19.905 5.20772 21.6342 6.67477L19.6216 9.25173C18.4275 8.23169 16.9835 7.50969 15.4204 7.15108V12.4171C19.474 13.2854 22.1666 14.6019 22.1666 18.0192C22.1666 21.2407 19.7106 23.5935 15.4204 23.8736ZM12.7275 11.7448V7.09494C11.2778 7.43099 10.3602 8.41139 10.3602 9.50388C10.3602 10.6243 11.1297 11.2125 12.7275 11.7448ZM18.468 18.3552C18.468 17.0667 17.521 16.4785 15.4204 15.8903V20.8764C17.4323 20.6523 18.468 19.588 18.468 18.3552Z" fill="#F40009"/>
</svg>
