<svg width="24" height="24" viewBox="0 0 24 24" fill="none" xmlns="http://www.w3.org/2000/svg">
<path d="M13.2175 20.4633V22H10.9093V20.3912C8.70006 20.1551 6.62893 19.2547 5 17.8223L6.82602 15.6854C7.96448 16.7111 9.37581 17.4249 10.9093 17.7505V13.0685C7.7895 12.3 5.68471 11.2443 5.68471 8.41053C5.68471 5.81758 7.78969 3.82401 10.9093 3.46456V2H13.2175V3.48871C15.1972 3.68251 17.0614 4.46404 18.5436 5.72151L16.8185 7.93033C15.795 7.05601 14.5573 6.43715 13.2175 6.12978V10.6435C16.6921 11.3878 19 12.5162 19 15.4453C19 18.2066 16.8948 20.2232 13.2175 20.4633ZM10.9093 10.0672V6.08165C9.66673 6.3697 8.88016 7.21004 8.88016 8.14646C8.88016 9.10685 9.53973 9.61101 10.9093 10.0672ZM15.8297 15.7333C15.8297 14.6289 15.018 14.1247 13.2175 13.6206V17.8944C14.942 17.7022 15.8297 16.79 15.8297 15.7333Z" fill="#3CB54A"/>
</svg>
