<svg width="12" height="15" viewBox="0 0 12 15" fill="none" xmlns="http://www.w3.org/2000/svg">
<path d="M9.82499 5.5H8.49999V1.33333C8.49999 0.875 8.12499 0.5 7.66666 0.5H4.33332C3.87499 0.5 3.49999 0.875 3.49999 1.33333V5.5H2.17499C1.43332 5.5 1.05832 6.4 1.58332 6.925L5.40832 10.75C5.73332 11.075 6.25832 11.075 6.58332 10.75L10.4083 6.925C10.9333 6.4 10.5667 5.5 9.82499 5.5ZM0.166656 13.8333C0.166656 14.2917 0.541657 14.6667 0.99999 14.6667H11C11.4583 14.6667 11.8333 14.2917 11.8333 13.8333C11.8333 13.375 11.4583 13 11 13H0.99999C0.541657 13 0.166656 13.375 0.166656 13.8333Z" fill="#29293E"/>
</svg>
