<svg width="36" height="36" viewBox="0 0 36 36" fill="none" xmlns="http://www.w3.org/2000/svg">
<g clip-path="url(#clip0_321_18517)">
<path d="M21.0086 22.0556C20.113 22.6527 19.0726 22.9683 18 22.9683C16.9275 22.9683 15.8871 22.6527 14.9915 22.0556L0.239695 12.2208C0.157852 12.1662 0.0781172 12.1094 0 12.0509V28.1663C0 30.0139 1.49941 31.4803 3.31404 31.4803H32.6859C34.5336 31.4803 35.9999 29.9809 35.9999 28.1663V12.0508C35.9217 12.1094 35.8418 12.1664 35.7597 12.2211L21.0086 22.0556Z" fill="#2BA339"/>
<path d="M1.40977 10.4674L16.1615 20.3023C16.72 20.6746 17.3599 20.8607 17.9999 20.8607C18.64 20.8607 19.28 20.6745 19.8385 20.3023L34.5902 10.4674C35.473 9.87924 36 8.89487 36 7.83245C36 6.00566 34.5138 4.51953 32.6871 4.51953H3.31291C1.4862 4.5196 0 6.00573 0 7.8342C0 8.89487 0.527062 9.87924 1.40977 10.4674Z" fill="#2BA339"/>
</g>
<defs>
<clipPath id="clip0_321_18517">
<rect width="36" height="36" fill="white"/>
</clipPath>
</defs>
</svg>
