<svg width="16" height="20" viewBox="0 0 16 20" fill="none" xmlns="http://www.w3.org/2000/svg">
<path d="M8 0C6.01169 0.00263755 4.10556 0.793661 2.69961 2.19961C1.29366 3.60556 0.502638 5.51169 0.5 7.5C0.5 12.8844 7.4875 19.6281 7.78437 19.9125C7.84212 19.9686 7.91947 20 8 20C8.08053 20 8.15788 19.9686 8.21562 19.9125C8.5125 19.6281 15.5 12.8844 15.5 7.5C15.4974 5.51169 14.7063 3.60556 13.3004 2.19961C11.8944 0.793661 9.98831 0.00263755 8 0ZM8 10.9375C7.32013 10.9375 6.65552 10.7359 6.09023 10.3582C5.52493 9.98046 5.08434 9.4436 4.82416 8.81547C4.56399 8.18735 4.49591 7.49619 4.62855 6.82938C4.76119 6.16257 5.08858 5.55006 5.56932 5.06932C6.05006 4.58858 6.66257 4.26119 7.32938 4.12855C7.99619 3.99591 8.68735 4.06399 9.31547 4.32416C9.9436 4.58434 10.4805 5.02493 10.8582 5.59023C11.2359 6.15552 11.4375 6.82013 11.4375 7.5C11.437 8.41151 11.0746 9.28554 10.4301 9.93008C9.78554 10.5746 8.91151 10.937 8 10.9375Z" fill="#3CB54A"/>
</svg>
