<svg width="16" height="16" viewBox="0 0 16 16" fill="none" xmlns="http://www.w3.org/2000/svg">
<path d="M14.2754 1H10.4133C10.2212 1 10.0371 1.07629 9.90125 1.2121C9.76545 1.3479 9.68915 1.53208 9.68915 1.72414C9.68915 1.91619 9.76545 2.10038 9.90125 2.23618C10.0371 2.37198 10.2212 2.44828 10.4133 2.44828H12.5271L5.5857 9.38971C5.45051 9.52564 5.37474 9.70963 5.375 9.90135C5.37526 10.0931 5.45153 10.2768 5.58709 10.4124C5.72266 10.548 5.90644 10.6242 6.09815 10.6245C6.28987 10.6248 6.47386 10.549 6.60979 10.4138L13.5512 3.47236V5.58621C13.5512 5.77826 13.6275 5.96245 13.7633 6.09825C13.8991 6.23405 14.0833 6.31035 14.2754 6.31035C14.4674 6.31035 14.6516 6.23405 14.7874 6.09825C14.9232 5.96245 14.9995 5.77826 14.9995 5.58621V1.72414C14.9995 1.53208 14.9232 1.3479 14.7874 1.2121C14.6516 1.07629 14.4674 1 14.2754 1Z" fill="#2BA339"/>
<path d="M14.2759 7.75862C14.0838 7.75862 13.8996 7.83491 13.7638 7.97072C13.628 8.10652 13.5517 8.29071 13.5517 8.48276V13.5517H2.44828V2.44828H7.51724C7.70929 2.44828 7.89348 2.37198 8.02928 2.23618C8.16509 2.10038 8.24138 1.91619 8.24138 1.72414C8.24138 1.53208 8.16509 1.3479 8.02928 1.2121C7.89348 1.07629 7.70929 1 7.51724 1H1.72414C1.53208 1 1.3479 1.07629 1.2121 1.2121C1.07629 1.3479 1 1.53208 1 1.72414V14.2759C1 14.4679 1.07629 14.6521 1.2121 14.7879C1.3479 14.9237 1.53208 15 1.72414 15H14.2759C14.4679 15 14.6521 14.9237 14.7879 14.7879C14.9237 14.6521 15 14.4679 15 14.2759V8.48276C15 8.29071 14.9237 8.10652 14.7879 7.97072C14.6521 7.83491 14.4679 7.75862 14.2759 7.75862Z" fill="#2BA339"/>
</svg>
