<svg width="24" height="24" viewBox="0 0 24 24" fill="none" xmlns="http://www.w3.org/2000/svg">
<path fill-rule="evenodd" clip-rule="evenodd" d="M12.0007 2C6.48204 2 2.00075 6.48141 2.00075 12.0007C2.00408 13.7668 2.48398 15.4954 3.37314 17.0189L2.01768 21.0853C1.9308 21.3459 2.17895 21.594 2.43955 21.5072L6.32885 20.2109C7.99583 21.365 9.96938 21.997 12.0001 22C17.519 21.9999 22 17.5189 22 12C22 6.48101 17.5194 2.00013 12.0007 2ZM16.4445 13.1111C17.0581 13.1111 17.5556 12.6136 17.5556 12C17.5556 11.3863 17.0581 10.8889 16.4445 10.8889C15.8308 10.8889 15.3334 11.3863 15.3334 12C15.3334 12.6136 15.8308 13.1111 16.4445 13.1111ZM13.1111 12C13.1111 12.6136 12.6136 13.1111 12 13.1111C11.3863 13.1111 10.8889 12.6136 10.8889 12C10.8889 11.3863 11.3863 10.8889 12 10.8889C12.6136 10.8889 13.1111 11.3863 13.1111 12ZM7.55556 13.1111C8.16921 13.1111 8.66667 12.6136 8.66667 12C8.66667 11.3863 8.16921 10.8889 7.55556 10.8889C6.94191 10.8889 6.44444 11.3863 6.44444 12C6.44444 12.6136 6.94191 13.1111 7.55556 13.1111Z" fill="#3CB54A"/>
</svg>
