<svg width="24" height="24" viewBox="0 0 24 24" fill="none" xmlns="http://www.w3.org/2000/svg">
<path d="M18.0002 19.1696V15.5H4.00012V23.9999L8.00005 23.9999V21.9999L9.00005 23.9999H12V19.9999L13 23.9999H20C18.6665 22.6661 18.0002 20.918 18.0002 19.1696Z" fill="#3CB54A"/>
<path fill-rule="evenodd" clip-rule="evenodd" d="M13.0004 9.9999H16.001C17.1056 9.9999 18.0002 10.8954 18.0002 12V14.0001H4.00037V12C4.00037 10.8954 4.89556 10.0011 6.00017 10.0011H9.00017V2.0001C9.00017 0.895488 9.8966 0 11.0003 0C12.1045 0 13.0004 0.895488 13.0004 2.0001V9.9999ZM11 3C11.5523 3 12 2.55228 12 2C12 1.44772 11.5523 1 11 1C10.4477 1 10 1.44772 10 2C10 2.55228 10.4477 3 11 3Z" fill="#3CB54A"/>
</svg>
