<svg width="12" height="12" viewBox="0 0 12 12" fill="none" xmlns="http://www.w3.org/2000/svg">
<g clip-path="url(#clip0_293_14439)">
<path d="M7.41065 2.01562L0.808079 8.61867C0.774861 8.65198 0.750876 8.69405 0.739454 8.73926L0.00762279 11.6767C-0.0142684 11.7651 0.0117155 11.8591 0.0762469 11.9237C0.125074 11.9725 0.191604 11.9995 0.259657 11.9995C0.280501 11.9995 0.301821 11.997 0.32257 11.9917L3.25999 11.2598C3.30577 11.2484 3.34736 11.2245 3.38058 11.1913L9.98372 4.5887L7.41065 2.01562Z" fill="#7F7F8D"/>
<path d="M11.6195 1.11493L10.8845 0.379955C10.3933 -0.111264 9.53713 -0.110789 9.04648 0.379955L8.14618 1.28025L10.7192 3.85323L11.6195 2.95293C11.8648 2.70765 12 2.38119 12 2.03398C12 1.68676 11.8648 1.3603 11.6195 1.11493Z" fill="#7F7F8D"/>
</g>
<defs>
<clipPath id="clip0_293_14439">
<rect width="12" height="12" fill="white"/>
</clipPath>
</defs>
</svg>
