<svg width="36" height="36" viewBox="0 0 36 36" fill="none" xmlns="http://www.w3.org/2000/svg">
<path d="M28.339 1.00785V1.00413C27.7 0.361767 26.8314 0.000371901 25.9254 0H10.0713C8.18825 0.00613636 6.66336 1.53102 6.65723 3.41405V32.5822C6.6576 33.4883 7.01899 34.3568 7.66136 34.9959C8.29945 35.6373 9.16653 35.9986 10.0713 36H25.9291C26.8339 35.9986 27.701 35.6373 28.339 34.9959C28.9805 34.3578 29.3418 33.4907 29.3432 32.586V3.41777C29.3418 2.51303 28.9805 1.64594 28.339 1.00785ZM18.0002 33.6831C17.4908 33.6831 17.0779 33.2702 17.0779 32.7607C17.0779 32.2513 17.4908 31.8384 18.0002 31.8384C18.5096 31.8384 18.9225 32.2513 18.9225 32.7607C18.9225 33.2702 18.5096 33.6831 18.0002 33.6831ZM26.632 27.8926C26.632 29.1249 25.633 30.124 24.4006 30.124H11.5961C10.3637 30.124 9.36466 29.1249 9.36466 27.8926V6.15496C9.36466 4.92257 10.3637 3.92355 11.5961 3.92355H24.4043C25.6367 3.92355 26.6357 4.92257 26.6357 6.15496L26.632 27.8926Z" fill="#2BA339"/>
</svg>
