<svg width="20" height="20" viewBox="0 0 20 20" fill="none" xmlns="http://www.w3.org/2000/svg">
<path d="M10 0C4.47717 0 0 4.47717 0 10C0 15.5229 4.47717 20.0001 10 20.0001C15.5229 20.0001 20.0001 15.5229 20.0001 10C19.9942 4.47964 15.5205 0.00590125 10 0ZM14.2114 10.3187C14.1422 10.4575 14.0297 10.5701 13.8907 10.6393V10.6429L8.17646 13.5001C7.82355 13.6764 7.39456 13.5333 7.21819 13.1804C7.16805 13.0801 7.14223 12.9693 7.14286 12.8572V7.1429C7.14269 6.74839 7.46232 6.42847 7.85683 6.42826C7.96778 6.42822 8.07722 6.454 8.17646 6.5036L13.8907 9.36077C14.2438 9.53672 14.3874 9.96558 14.2114 10.3187Z" fill="#3CB54A"/>
</svg>
