<svg width="24" height="24" viewBox="0 0 24 24" fill="none" xmlns="http://www.w3.org/2000/svg">
<path d="M12 2C6.47717 2 2 6.47717 2 12C2 17.5229 6.47717 22.0001 12 22.0001C17.5229 22.0001 22.0001 17.5229 22.0001 12C21.9942 6.47964 17.5205 2.0059 12 2ZM16.2114 12.3187C16.1422 12.4575 16.0297 12.5701 15.8907 12.6393V12.6429L10.1765 15.5001C9.82355 15.6764 9.39456 15.5333 9.21819 15.1804C9.16805 15.0801 9.14223 14.9693 9.14286 14.8572V9.1429C9.14269 8.74839 9.46232 8.42847 9.85683 8.42826C9.96778 8.42822 10.0772 8.454 10.1765 8.5036L15.8907 11.3608C16.2438 11.5367 16.3874 11.9656 16.2114 12.3187Z" fill="#3CB54A"/>
</svg>
