<svg width="24" height="24" viewBox="0 0 24 24" fill="none" xmlns="http://www.w3.org/2000/svg">
<path d="M21.4425 10.3725L3.9225 2.87249C3.65849 2.75769 3.37 2.71059 3.08318 2.73548C2.79637 2.76036 2.5203 2.85644 2.28 3.01499C2.04059 3.17491 1.84421 3.39128 1.70818 3.64502C1.57216 3.89877 1.50066 4.18208 1.5 4.46999V9.11249C1.50155 9.53374 1.65602 9.94009 1.93468 10.256C2.21334 10.5719 2.59724 10.7759 3.015 10.83L11.58 11.9625L3.015 13.0725C2.59661 13.1283 2.2126 13.3338 1.93406 13.6509C1.65552 13.9681 1.50132 14.3754 1.5 14.7975V19.53C1.50253 19.8174 1.57582 20.0998 1.71338 20.3522C1.85094 20.6046 2.04855 20.8192 2.28874 20.9771C2.52893 21.135 2.80432 21.2314 3.09056 21.2576C3.37681 21.2838 3.66512 21.2391 3.93 21.1275L21.45 13.5675C21.7589 13.4296 22.0212 13.2051 22.205 12.9211C22.3888 12.6371 22.4862 12.3058 22.4854 11.9675C22.4846 11.6293 22.3857 11.2985 22.2005 11.0153C22.0154 10.7322 21.7521 10.5089 21.4425 10.3725V10.3725Z" fill="white"/>
</svg>
