<svg width="24" height="24" viewBox="0 0 24 24" fill="none" xmlns="http://www.w3.org/2000/svg">
<path d="M21.4007 14.1917L19.5624 12.7542C19.5857 12.5325 19.6057 12.2734 19.6057 11.9992C19.6057 11.725 19.5865 11.4659 19.5624 11.2442L21.4024 9.80586C21.7441 9.53586 21.8374 9.05668 21.6199 8.65754L19.7082 5.35C19.504 4.97668 19.0565 4.785 18.6024 4.9525L16.4332 5.82332C16.0174 5.52332 15.5815 5.27 15.1307 5.0675L14.8007 2.76668C14.7465 2.33 14.3665 2 13.9174 2H10.0841C9.63489 2 9.25575 2.33 9.20239 2.76L8.87157 5.06918C8.43489 5.26586 8.00575 5.51586 7.57157 5.825L5.39657 4.95168C4.98903 4.79418 4.50153 4.97082 4.29903 5.3425L2.38489 8.65418C2.15907 9.03586 2.25239 9.53168 2.60157 9.80836L4.43989 11.2459C4.41071 11.5267 4.39657 11.7709 4.39657 12C4.39657 12.2292 4.41075 12.4734 4.43989 12.755L2.59989 14.1934C2.25821 14.4642 2.16571 14.9434 2.38321 15.3417L4.29489 18.6492C4.49907 19.0217 4.94239 19.215 5.40071 19.0467L7.56989 18.1759C7.98489 18.475 8.42071 18.7284 8.87157 18.9317L9.20157 21.2317C9.25571 21.67 9.63489 22 10.0849 22H13.9182C14.3674 22 14.7474 21.67 14.8007 21.24L15.1315 18.9317C15.5682 18.7342 15.9965 18.485 16.4315 18.175L18.6065 19.0483C18.7115 19.0891 18.8207 19.11 18.9332 19.11C19.2565 19.11 19.554 18.9333 19.704 18.6583L21.624 15.3333C21.8374 14.9433 21.744 14.4642 21.4007 14.1917ZM12.0007 15.3333C10.1624 15.3333 8.66739 13.8383 8.66739 12C8.66739 10.1617 10.1624 8.66668 12.0007 8.66668C13.839 8.66668 15.334 10.1617 15.334 12C15.334 13.8383 13.839 15.3333 12.0007 15.3333Z" fill="#3CB54A"/>
</svg>
