<svg width="20" height="20" viewBox="0 0 20 20" fill="none" xmlns="http://www.w3.org/2000/svg">
<g clip-path="url(#clip0_162_19003)">
<path d="M13.8302 13.325V19.3647C13.8302 19.8628 13.2698 20.1119 12.8962 19.8005L10.7792 18.0571C10.7792 18.0571 10.7169 18.0571 10.7169 17.9948C10.5301 17.8703 10.3434 17.808 10.1566 17.808C9.9075 17.808 9.7207 17.8703 9.53391 18.0571L7.41689 19.8628C7.0433 20.1741 6.48291 19.9251 6.48291 19.4269V13.3872H13.8302V13.325Z" fill="#F45170"/>
<path d="M13.8304 13.325V19.3647C13.8304 19.8628 13.27 20.1119 12.8964 19.8005L10.7794 18.0571C10.7794 18.0571 10.7171 18.0571 10.7171 17.9948C10.5303 17.8703 10.3435 17.808 10.1567 17.808V13.325H13.8304Z" fill="#E93565"/>
<path d="M13.8302 14.7568V15.6908C13.2698 15.8153 12.5849 15.6285 12.0868 15.7531C11.4641 15.9399 10.8415 16.6248 10.1566 16.6248C9.47164 16.6248 8.84899 15.9399 8.22634 15.7531C7.66595 15.6285 6.98103 15.8153 6.48291 15.6908V14.7568H13.8302Z" fill="#CC104A"/>
<path d="M17.3172 10.0247C17.1305 10.7096 17.4418 11.5191 17.1305 12.1417C16.7569 12.7644 15.8851 12.8889 15.387 13.387C14.8889 13.8851 14.7644 14.7569 14.1417 15.1305C13.5813 15.4418 12.7096 15.1305 12.0247 15.3172C11.4021 15.504 10.7794 16.189 10.0945 16.189C9.40956 16.189 8.78691 15.504 8.16426 15.3172C7.47934 15.1305 6.66989 15.4418 6.04724 15.1305C5.48685 14.8191 5.30006 13.8851 4.80193 13.387C4.30381 12.8889 3.4321 12.7644 3.05851 12.1417C2.74718 11.5813 3.05851 10.7096 2.87171 10.0247C2.68492 9.40205 2 8.7794 2 8.09448C2 7.40956 2.68492 6.78691 2.87171 6.16426C3.05851 5.47934 2.74718 4.66989 3.05851 4.04724C3.36983 3.48685 4.30381 3.30006 4.80193 2.80194C5.30006 2.30381 5.42459 1.4321 6.04724 1.05851C6.60763 0.747183 7.47934 1.05851 8.16426 0.871713C8.78691 0.684918 9.40956 0 10.0945 0C10.7794 0 11.4021 0.684918 12.0247 0.871713C12.7096 1.05851 13.5191 0.747183 14.1417 1.05851C14.7021 1.36984 14.8889 2.30381 15.387 2.80194C15.8851 3.30006 16.7569 3.42459 17.1305 4.04724C17.4418 4.60763 17.1305 5.47934 17.3172 6.16426C17.504 6.78691 18.189 7.40956 18.189 8.09448C18.189 8.7794 17.504 9.40205 17.3172 10.0247Z" fill="#F9BE48"/>
<g opacity="0.4">
<path d="M16.1962 8.09441C16.1962 11.3945 13.5187 14.1341 10.1564 14.1341C6.85637 14.1341 4.1167 11.4567 4.1167 8.09441C4.1167 4.79436 6.7941 2.05469 10.1564 2.05469C13.4565 2.05469 16.1962 4.79436 16.1962 8.09441Z" fill="white"/>
</g>
<path d="M15.5739 8.09432C15.5739 11.0831 13.1456 13.5114 10.1568 13.5114C7.16809 13.5114 4.73975 11.0831 4.73975 8.09432C4.73975 5.10559 7.16809 2.67725 10.1568 2.67725C13.1456 2.67725 15.5739 5.10559 15.5739 8.09432Z" fill="#F3A250"/>
<path d="M15.5741 8.46802C15.3873 5.60382 13.0212 3.36228 10.157 3.36228C7.29277 3.36228 4.9267 5.60382 4.7399 8.46802C4.5531 5.23023 7.16824 2.61509 10.157 2.67736C13.208 2.73962 15.7608 5.16797 15.5741 8.46802Z" fill="#EF7B56"/>
<path d="M11.8996 8.90377L12.2109 10.834C12.2732 11.1453 11.9619 11.3321 11.7128 11.2076L10.0317 10.3359C9.90712 10.2736 9.78259 10.2736 9.72032 10.3359L8.03916 11.2076C7.7901 11.3321 7.47878 11.1453 7.54104 10.834L7.85237 8.90377C7.85237 8.77924 7.85237 8.65471 7.72784 8.59244L6.358 7.22261C6.17121 7.03581 6.23347 6.66222 6.5448 6.59996L8.47502 6.28863C8.59955 6.28863 8.66182 6.22636 8.72408 6.10183L9.53353 4.48294C9.65806 4.23388 10.0317 4.23388 10.1562 4.48294L11.0279 6.22636C11.0902 6.35089 11.1524 6.41316 11.277 6.41316L13.2072 6.72449C13.5185 6.78675 13.643 7.09808 13.394 7.34714L12.0241 8.59244C11.9619 8.71697 11.8996 8.77924 11.8996 8.90377Z" fill="#EF7B56"/>
<path d="M12.2114 9.21507L12.5227 11.1453C12.585 11.4566 12.2736 11.6434 12.0246 11.5189L10.3434 10.6472C10.2189 10.5849 10.0944 10.5849 10.0321 10.6472L8.28867 11.5189C8.03961 11.6434 7.72829 11.4566 7.79055 11.1453L8.10188 9.21507C8.10188 9.09054 8.10188 8.96601 7.97735 8.90374L6.60751 7.53391C6.42072 7.34711 6.48298 6.97352 6.79431 6.91125L8.72453 6.59993C8.84906 6.59993 8.91133 6.53766 8.97359 6.41313L9.84531 4.66971C9.96984 4.42064 10.3434 4.42064 10.468 4.66971L11.3397 6.41313C11.4019 6.53766 11.4642 6.59993 11.5887 6.59993L13.519 6.91125C13.8303 6.97352 13.9548 7.28485 13.7057 7.53391L12.3359 8.90374C12.2114 8.96601 12.2114 9.09054 12.2114 9.21507Z" fill="#F9CF6B"/>
<g opacity="0.5">
<path d="M6.98105 7.59636C6.79426 7.40956 6.91879 7.09824 7.16785 7.03597L8.84901 6.78691C8.97354 6.78691 9.0358 6.72465 9.09807 6.60012L9.84525 5.04349C9.96978 4.79442 10.2811 4.79442 10.4056 5.04349L11.1528 6.60012C11.2151 6.72465 11.2774 6.78691 11.4019 6.78691L13.083 7.03597C13.3321 7.09824 13.4566 7.40956 13.2698 7.59636C13.2698 7.59636 12.2113 8.7794 10.032 8.7794C8.41315 8.7794 6.98105 7.59636 6.98105 7.59636Z" fill="white"/>
</g>
<g opacity="0.7">
<path d="M9.65862 6.72461C9.3473 6.60008 9.84542 5.29251 10.1567 5.41704C10.3435 5.47931 10.0322 6.84914 9.65862 6.72461Z" fill="white"/>
</g>
<path d="M7.41693 4.10943C7.23014 4.10943 7.10561 4.23396 6.98108 4.35849C7.04334 4.42075 7.66599 4.91887 7.60373 4.98114C7.54146 5.0434 6.91881 4.60755 6.85655 4.54528C6.79428 4.66981 6.73202 4.85661 6.79428 4.98114C6.98108 6.53777 6.73202 6.60004 6.42069 5.04341C6.35842 4.85661 6.29616 4.73208 6.17163 4.60755C6.10936 4.66981 5.61124 5.29247 5.54898 5.2302C5.48671 5.16794 5.92257 4.54528 5.98483 4.48302C5.8603 4.42075 5.67351 4.42075 5.54898 4.42075C3.93008 4.54528 3.86781 4.35849 5.48671 4.04716C5.67351 3.9849 5.79804 3.92263 5.92257 3.7981C5.92257 3.7981 5.92257 3.7981 5.8603 3.73584C4.98859 3.05092 5.11312 2.98865 5.98483 3.54904H6.0471C6.10936 3.42451 6.17163 3.23771 6.10936 3.11318C5.92257 1.49429 6.17163 1.49429 6.48295 3.05092C6.48295 3.23771 6.60749 3.36224 6.73202 3.48677C6.73202 3.48677 6.73202 3.48677 6.79428 3.42451C7.4792 2.5528 7.54146 2.67733 6.98108 3.54904V3.6113C7.04334 3.73584 7.23014 3.7981 7.35467 3.7981C8.97356 3.6113 8.97356 3.7981 7.41693 4.10943Z" fill="white"/>
<g opacity="0.5">
<path d="M7.41656 17.559C7.41656 18.4307 7.3543 18.493 7.22976 18.493C7.1675 18.493 7.04297 18.4307 7.04297 17.559C7.04297 16.6873 7.10523 16.4382 7.22976 16.4382C7.3543 16.4382 7.41656 16.6873 7.41656 17.559Z" fill="white"/>
</g>
</g>
<defs>
<clipPath id="clip0_162_19003">
<rect width="20" height="20" fill="white"/>
</clipPath>
</defs>
</svg>
