<svg width="16" height="14" viewBox="0 0 16 14" fill="none" xmlns="http://www.w3.org/2000/svg">
<path d="M14.9555 5.87536L11.841 8.91136L12.5765 13.1994C12.6085 13.3869 12.5315 13.5764 12.3775 13.6884C12.2905 13.7519 12.187 13.7839 12.0835 13.7839C12.004 13.7839 11.924 13.7649 11.851 13.7264L8.00002 11.7019L4.14952 13.7259C3.98152 13.8149 3.77702 13.8004 3.62302 13.6879C3.46902 13.5759 3.39202 13.3864 3.42402 13.1989L4.15952 8.91086L1.04452 5.87536C0.908517 5.74236 0.859017 5.54336 0.918017 5.36286C0.977017 5.18236 1.13352 5.04986 1.32202 5.02236L5.62652 4.39736L7.55152 0.496359C7.72002 0.154859 8.28002 0.154859 8.44852 0.496359L10.3735 4.39736L14.678 5.02236C14.8665 5.04986 15.023 5.18186 15.082 5.36286C15.141 5.54386 15.0915 5.74186 14.9555 5.87536Z" fill="#F89408"/>
</svg>
