<svg width="24" height="24" viewBox="0 0 24 24" fill="none" xmlns="http://www.w3.org/2000/svg">
<rect x="2" y="20" width="20" height="2" rx="1" fill="#3CB54A"/>
<path fill-rule="evenodd" clip-rule="evenodd" d="M4 10C4 5.58172 7.58172 2 12 2C16.4183 2 20 5.58172 20 10V22H4V10ZM8 10C8 9.44772 8.44772 9 9 9H11V7C11 6.44772 11.4477 6 12 6C12.5523 6 13 6.44772 13 7V9H15C15.5523 9 16 9.44772 16 10C16 10.5523 15.5523 11 15 11H13V15C13 15.5523 12.5523 16 12 16C11.4477 16 11 15.5523 11 15V11H9C8.44772 11 8 10.5523 8 10Z" fill="#3CB54A"/>
</svg>
