<svg width="30" height="28" viewBox="0 0 30 28" fill="none" xmlns="http://www.w3.org/2000/svg">
<path d="M28.9112 11.7502L22.6822 17.8222L24.1532 26.3982C24.2172 26.7732 24.0632 27.1522 23.7552 27.3762C23.5812 27.5032 23.3742 27.5672 23.1672 27.5672C23.0082 27.5672 22.8482 27.5292 22.7022 27.4522L15.0002 23.4032L7.29916 27.4512C6.96316 27.6292 6.55416 27.6002 6.24616 27.3752C5.93816 27.1512 5.78416 26.7722 5.84816 26.3972L7.31916 17.8212L1.08916 11.7502C0.817157 11.4842 0.718157 11.0862 0.836157 10.7252C0.954157 10.3642 1.26716 10.0992 1.64416 10.0442L10.2532 8.79423L14.1032 0.992231C14.4402 0.30923 15.5602 0.30923 15.8972 0.992231L19.7472 8.79423L28.3562 10.0442C28.7332 10.0992 29.0462 10.3632 29.1642 10.7252C29.2822 11.0872 29.1832 11.4832 28.9112 11.7502Z" fill="#EBEBEB"/>
</svg>
