<svg width="16" height="17" viewBox="0 0 16 17" fill="none" xmlns="http://www.w3.org/2000/svg">
<path d="M14.2758 1.5H10.4138C10.2217 1.5 10.0375 1.57629 9.90174 1.7121C9.76593 1.8479 9.68964 2.03208 9.68964 2.22414C9.68964 2.41619 9.76593 2.60038 9.90174 2.73618C10.0375 2.87198 10.2217 2.94828 10.4138 2.94828H12.5276L5.58619 9.88971C5.451 10.0256 5.37523 10.2096 5.37549 10.4013C5.37575 10.5931 5.45202 10.7768 5.58758 10.9124C5.72314 11.048 5.90693 11.1242 6.09864 11.1245C6.29035 11.1248 6.47435 11.049 6.61027 10.9138L13.5517 3.97236V6.08621C13.5517 6.27826 13.628 6.46245 13.7638 6.59825C13.8996 6.73405 14.0838 6.81035 14.2758 6.81035C14.4679 6.81035 14.6521 6.73405 14.7879 6.59825C14.9237 6.46245 15 6.27826 15 6.08621V2.22414C15 2.03208 14.9237 1.8479 14.7879 1.7121C14.6521 1.57629 14.4679 1.5 14.2758 1.5Z" fill="#7F7F8D"/>
<path d="M14.2759 8.25862C14.0838 8.25862 13.8996 8.33491 13.7638 8.47072C13.628 8.60652 13.5517 8.79071 13.5517 8.98276V14.0517H2.44828V2.94828H7.51724C7.70929 2.94828 7.89348 2.87198 8.02928 2.73618C8.16509 2.60038 8.24138 2.41619 8.24138 2.22414C8.24138 2.03208 8.16509 1.8479 8.02928 1.7121C7.89348 1.57629 7.70929 1.5 7.51724 1.5H1.72414C1.53208 1.5 1.3479 1.57629 1.2121 1.7121C1.07629 1.8479 1 2.03208 1 2.22414V14.7759C1 14.9679 1.07629 15.1521 1.2121 15.2879C1.3479 15.4237 1.53208 15.5 1.72414 15.5H14.2759C14.4679 15.5 14.6521 15.4237 14.7879 15.2879C14.9237 15.1521 15 14.9679 15 14.7759V8.98276C15 8.79071 14.9237 8.60652 14.7879 8.47072C14.6521 8.33491 14.4679 8.25862 14.2759 8.25862Z" fill="#7F7F8D"/>
</svg>
