<svg width="20" height="20" viewBox="0 0 20 20" fill="none" xmlns="http://www.w3.org/2000/svg">
<g clip-path="url(#clip0_169_19568)">
<path d="M13.8307 13.325V19.3647C13.8307 19.8628 13.2703 20.1119 12.8967 19.8005L10.7797 18.0571C10.7797 18.0571 10.7174 18.0571 10.7174 17.9948C10.5306 17.8703 10.3438 17.808 10.157 17.808C9.90799 17.808 9.72119 17.8703 9.53439 18.0571L7.41738 19.8628C7.04379 20.1741 6.4834 19.9251 6.4834 19.4269V13.3872H13.8307V13.325Z" fill="#F45170"/>
<path d="M13.8299 13.325V19.3647C13.8299 19.8628 13.2695 20.1119 12.8959 19.8005L10.7789 18.0571C10.7789 18.0571 10.7166 18.0571 10.7166 17.9948C10.5298 17.8703 10.343 17.808 10.1562 17.808V13.325H13.8299Z" fill="#E93565"/>
<path d="M13.8307 14.7568V15.6908C13.2703 15.8153 12.5854 15.6285 12.0873 15.7531C11.4646 15.9399 10.842 16.6248 10.157 16.6248C9.47213 16.6248 8.84948 15.9399 8.22682 15.7531C7.66644 15.6285 6.98152 15.8153 6.4834 15.6908V14.7568H13.8307Z" fill="#CC104A"/>
<path d="M17.3172 10.0247C17.1305 10.7096 17.4418 11.5191 17.1305 12.1417C16.7569 12.7644 15.8851 12.8889 15.387 13.387C14.8889 13.8851 14.7644 14.7569 14.1417 15.1305C13.5813 15.4418 12.7096 15.1305 12.0247 15.3172C11.4021 15.504 10.7794 16.189 10.0945 16.189C9.40956 16.189 8.78691 15.504 8.16426 15.3172C7.47934 15.1305 6.66989 15.4418 6.04724 15.1305C5.48685 14.8191 5.30006 13.8851 4.80193 13.387C4.30381 12.8889 3.4321 12.7644 3.05851 12.1417C2.74718 11.5813 3.05851 10.7096 2.87171 10.0247C2.68492 9.40205 2 8.7794 2 8.09448C2 7.40956 2.68492 6.78691 2.87171 6.16426C3.05851 5.47934 2.74718 4.66989 3.05851 4.04724C3.36983 3.48685 4.30381 3.30006 4.80193 2.80194C5.30006 2.30381 5.42459 1.4321 6.04724 1.05851C6.60763 0.747183 7.47934 1.05851 8.16426 0.871713C8.78691 0.684918 9.40956 0 10.0945 0C10.7794 0 11.4021 0.684918 12.0247 0.871713C12.7096 1.05851 13.5191 0.747183 14.1417 1.05851C14.7021 1.36984 14.8889 2.30381 15.387 2.80194C15.8851 3.30006 16.7569 3.42459 17.1305 4.04724C17.4418 4.60763 17.1305 5.47934 17.3172 6.16426C17.504 6.78691 18.189 7.40956 18.189 8.09448C18.189 8.7794 17.504 9.40205 17.3172 10.0247Z" fill="#F9BE48"/>
<g opacity="0.4">
<path d="M16.1966 8.09441C16.1966 11.3945 13.5192 14.1341 10.1569 14.1341C6.85686 14.1341 4.11719 11.4567 4.11719 8.09441C4.11719 4.79436 6.79459 2.05469 10.1569 2.05469C13.457 2.05469 16.1966 4.79436 16.1966 8.09441Z" fill="white"/>
</g>
<path d="M15.5724 8.09432C15.5724 11.0831 13.1441 13.5114 10.1554 13.5114C7.16663 13.5114 4.73828 11.0831 4.73828 8.09432C4.73828 5.10559 7.16663 2.67725 10.1554 2.67725C13.1441 2.67725 15.5724 5.10559 15.5724 8.09432Z" fill="#F3A250"/>
<path d="M15.5731 8.46802C15.3863 5.60382 13.0202 3.36228 10.156 3.36228C7.2918 3.36228 4.92572 5.60382 4.73892 8.46802C4.55213 5.23023 7.16727 2.61509 10.156 2.67736C13.207 2.73962 15.7599 5.16797 15.5731 8.46802Z" fill="#EF7B56"/>
<path d="M11.8986 8.90377L12.21 10.834C12.2722 11.1453 11.9609 11.3321 11.7118 11.2076L10.0307 10.3359C9.90614 10.2736 9.78161 10.2736 9.71935 10.3359L8.03819 11.2076C7.78913 11.3321 7.4778 11.1453 7.54007 10.834L7.85139 8.90377C7.85139 8.77924 7.85139 8.65471 7.72686 8.59244L6.35703 7.22261C6.17023 7.03581 6.2325 6.66222 6.54382 6.59996L8.47404 6.28863C8.59857 6.28863 8.66084 6.22636 8.7231 6.10183L9.53255 4.48294C9.65708 4.23388 10.0307 4.23388 10.1552 4.48294L11.0269 6.22636C11.0892 6.35089 11.1514 6.41316 11.276 6.41316L13.2062 6.72449C13.5175 6.78675 13.6421 7.09808 13.393 7.34714L12.0232 8.59244C11.9609 8.71697 11.8986 8.77924 11.8986 8.90377Z" fill="#EF7B56"/>
<path d="M12.2109 9.21507L12.5222 11.1453C12.5845 11.4566 12.2732 11.6434 12.0241 11.5189L10.3429 10.6472C10.2184 10.5849 10.0939 10.5849 10.0316 10.6472L8.28819 11.5189C8.03913 11.6434 7.7278 11.4566 7.79006 11.1453L8.10139 9.21507C8.10139 9.09054 8.10139 8.96601 7.97686 8.90374L6.60703 7.53391C6.42023 7.34711 6.4825 6.97352 6.79382 6.91125L8.72404 6.59993C8.84857 6.59993 8.91084 6.53766 8.9731 6.41313L9.84482 4.66971C9.96935 4.42064 10.3429 4.42064 10.4675 4.66971L11.3392 6.41313C11.4014 6.53766 11.4637 6.59993 11.5882 6.59993L13.5185 6.91125C13.8298 6.97352 13.9543 7.28485 13.7053 7.53391L12.3354 8.90374C12.2109 8.96601 12.2109 9.09054 12.2109 9.21507Z" fill="#F9CF6B"/>
<g opacity="0.5">
<path d="M6.97959 7.59636C6.79279 7.40956 6.91732 7.09824 7.16638 7.03597L8.84754 6.78691C8.97207 6.78691 9.03434 6.72465 9.0966 6.60012L9.84379 5.04349C9.96832 4.79442 10.2796 4.79442 10.4042 5.04349L11.1514 6.60012C11.2136 6.72465 11.2759 6.78691 11.4004 6.78691L13.0816 7.03597C13.3306 7.09824 13.4552 7.40956 13.2684 7.59636C13.2684 7.59636 12.2099 8.7794 10.0306 8.7794C8.41169 8.7794 6.97959 7.59636 6.97959 7.59636Z" fill="white"/>
</g>
<g opacity="0.7">
<path d="M9.65716 6.72461C9.34583 6.60008 9.84396 5.29251 10.1553 5.41704C10.3421 5.47931 10.0308 6.84914 9.65716 6.72461Z" fill="white"/>
</g>
<path d="M7.41644 4.10943C7.22965 4.10943 7.10512 4.23396 6.98059 4.35849C7.04285 4.42075 7.66551 4.91887 7.60324 4.98114C7.54097 5.0434 6.91832 4.60755 6.85606 4.54528C6.79379 4.66981 6.73153 4.85661 6.79379 4.98114C6.98059 6.53777 6.73153 6.60004 6.4202 5.04341C6.35794 4.85661 6.29567 4.73208 6.17114 4.60755C6.10888 4.66981 5.61075 5.29247 5.54849 5.2302C5.48622 5.16794 5.92208 4.54528 5.98434 4.48302C5.85981 4.42075 5.67302 4.42075 5.54849 4.42075C3.92959 4.54528 3.86733 4.35849 5.48622 4.04716C5.67302 3.9849 5.79755 3.92263 5.92208 3.7981C5.92208 3.7981 5.92208 3.7981 5.85981 3.73584C4.9881 3.05092 5.11263 2.98865 5.98434 3.54904H6.04661C6.10887 3.42451 6.17114 3.23771 6.10887 3.11318C5.92208 1.49429 6.17114 1.49429 6.48247 3.05092C6.48247 3.23771 6.607 3.36224 6.73153 3.48677C6.73153 3.48677 6.73153 3.48677 6.79379 3.42451C7.47871 2.5528 7.54097 2.67733 6.98059 3.54904V3.6113C7.04285 3.73584 7.22965 3.7981 7.35418 3.7981C8.97308 3.6113 8.97308 3.7981 7.41644 4.10943Z" fill="white"/>
<g opacity="0.5">
<path d="M7.41656 17.559C7.41656 18.4307 7.3543 18.493 7.22976 18.493C7.1675 18.493 7.04297 18.4307 7.04297 17.559C7.04297 16.6873 7.10523 16.4382 7.22976 16.4382C7.3543 16.4382 7.41656 16.6873 7.41656 17.559Z" fill="white"/>
</g>
</g>
<defs>
<clipPath id="clip0_169_19568">
<rect width="20" height="20" fill="white"/>
</clipPath>
</defs>
</svg>
