<svg width="16" height="14" viewBox="0 0 16 14" fill="none" xmlns="http://www.w3.org/2000/svg">
<path d="M14.9556 5.87512L11.8411 8.91112L12.5766 13.1991C12.6086 13.3866 12.5316 13.5761 12.3776 13.6881C12.2906 13.7516 12.1871 13.7836 12.0836 13.7836C12.0041 13.7836 11.9241 13.7646 11.8511 13.7261L8.00008 11.7016L4.14958 13.7256C3.98158 13.8146 3.77708 13.8001 3.62308 13.6876C3.46908 13.5756 3.39208 13.3861 3.42408 13.1986L4.15958 8.91062L1.04458 5.87512C0.908578 5.74212 0.859078 5.54312 0.918078 5.36262C0.977078 5.18212 1.13358 5.04962 1.32208 5.02212L5.62658 4.39712L7.55158 0.496115C7.72008 0.154615 8.28008 0.154615 8.44858 0.496115L10.3736 4.39712L14.6781 5.02212C14.8666 5.04962 15.0231 5.18162 15.0821 5.36262C15.1411 5.54362 15.0916 5.74162 14.9556 5.87512Z" fill="#F89408"/>
</svg>
